<?xml version="1.0" encoding="UTF-8" standalone="no"?>
<!-- Created with Inkscape (http://www.inkscape.org/) -->

<svg
   width="210mm"
   height="297mm"
   viewBox="0 0 210 297"
   version="1.1"
   id="svg5"
   inkscape:version="1.1.2 (0a00cf5339, 2022-02-04)"
   sodipodi:docname="Explanation.svg"
   xmlns:inkscape="http://www.inkscape.org/namespaces/inkscape"
   xmlns:sodipodi="http://sodipodi.sourceforge.net/DTD/sodipodi-0.dtd"
   xmlns="http://www.w3.org/2000/svg"
   xmlns:svg="http://www.w3.org/2000/svg">
  <sodipodi:namedview
     id="namedview7"
     pagecolor="#ffffff"
     bordercolor="#666666"
     borderopacity="1.0"
     inkscape:pageshadow="2"
     inkscape:pageopacity="0.0"
     inkscape:pagecheckerboard="0"
     inkscape:document-units="mm"
     showgrid="false"
     inkscape:zoom="0.37593995"
     inkscape:cx="-7.9799978"
     inkscape:cy="-1147.7897"
     inkscape:window-width="1864"
     inkscape:window-height="1016"
     inkscape:window-x="56"
     inkscape:window-y="27"
     inkscape:window-maximized="1"
     inkscape:current-layer="layer1" />
  <defs
     id="defs2" />
  <g
     inkscape:groupmode="layer"
     id="layer2"
     inkscape:label="Background celeste">
    <rect
       style="fill:#00ccff;fill-opacity:0.499181;stroke:#ff6600;stroke-width:0.251279"
       id="rect1357"
       width="330.77719"
       height="380.80923"
       x="-238.89284"
       y="-446.74966"
       ry="31.734985" />
    <text
       xml:space="preserve"
       style="font-style:normal;font-weight:normal;font-size:21.4175px;line-height:1.25;font-family:sans-serif;fill:#000000;fill-opacity:1;stroke:none;stroke-width:0.535439"
       x="-161.13319"
       y="-419.22229"
       id="text10637"><tspan
         sodipodi:role="line"
         id="tspan10635"
         style="stroke-width:0.535439"
         x="-161.13319"
         y="-419.22229">Good roots stack</tspan><tspan
         sodipodi:role="line"
         style="stroke-width:0.535439"
         x="-161.13319"
         y="-392.45041"
         id="tspan12751">Version 1</tspan></text>
  </g>
  <g
     inkscape:groupmode="layer"
     id="layer4"
     inkscape:label="App background">
    <rect
       style="fill:#ff2a2a;fill-opacity:1;stroke:#aa0000;stroke-width:0.264583"
       id="rect16555"
       width="206.59949"
       height="79.534019"
       x="-174.95618"
       y="-297.47003"
       ry="4.9996724" />
  </g>
  <g
     inkscape:label="Main"
     inkscape:groupmode="layer"
     id="layer1">
    <text
       xml:space="preserve"
       style="font-style:normal;font-weight:normal;font-size:10.5833px;line-height:1.25;font-family:sans-serif;fill:#000000;fill-opacity:1;stroke:none;stroke-width:0.264583"
       x="-160.87651"
       y="-279.21918"
       id="text6220"><tspan
         sodipodi:role="line"
         id="tspan6218"
         style="stroke-width:0.264583"
         x="-160.87651"
         y="-279.21918">general-frontend</tspan></text>
    <rect
       style="fill:#ff2a2a;fill-opacity:1;stroke:#ff6600;stroke-width:0.225114"
       id="rect13424"
       width="140.38986"
       height="19.262308"
       x="-223.68858"
       y="-173.9187"
       ry="5" />
    <text
       xml:space="preserve"
       style="font-style:normal;font-weight:normal;font-size:10.5833px;line-height:1.25;font-family:sans-serif;fill:#000000;fill-opacity:1;stroke:none;stroke-width:0.264583"
       x="-215.01218"
       y="-161.04869"
       id="text19478"><tspan
         sodipodi:role="line"
         id="tspan19476"
         style="stroke-width:0.264583"
         x="-215.01218"
         y="-161.04869">express-authentication</tspan></text>
    <rect
       style="fill:#ff2a2a;stroke:#ff6600;stroke-width:0.193213"
       id="rect20628"
       width="115.12475"
       height="18.345354"
       x="-44.434608"
       y="-172.78886"
       ry="5" />
    <text
       xml:space="preserve"
       style="font-style:normal;font-weight:normal;font-size:10.5833px;line-height:1.25;font-family:sans-serif;fill:#000000;fill-opacity:1;stroke:none;stroke-width:0.264583"
       x="-35.775696"
       y="-160.62109"
       id="text26852"><tspan
         sodipodi:role="line"
         id="tspan26850"
         style="stroke-width:0.264583"
         x="-35.775696"
         y="-160.62109">express-real-estate</tspan></text>
    <rect
       style="fill:#ff00ff;stroke:#ff6600;stroke-width:0.194931"
       id="rect28540"
       width="100.19427"
       height="21.907698"
       x="-82.945648"
       y="-274.02002"
       ry="5" />
    <text
       xml:space="preserve"
       style="font-style:normal;font-weight:normal;font-size:10.5833px;line-height:1.25;font-family:sans-serif;fill:#000000;fill-opacity:1;stroke:none;stroke-width:0.264583"
       x="-75.804031"
       y="-259.8075"
       id="text33772"><tspan
         sodipodi:role="line"
         id="tspan33770"
         style="stroke-width:0.264583"
         x="-75.804031"
         y="-259.8075">NextJS Frontend</tspan></text>
    <rect
       style="fill:#ff00ff;stroke:#ff6600;stroke-width:0.322343"
       id="rect41924"
       width="156.14812"
       height="36.568794"
       x="-159.44661"
       y="-380.78653"
       ry="9.6727724" />
    <text
       xml:space="preserve"
       style="font-style:normal;font-weight:normal;font-size:10.5833px;line-height:1.25;font-family:sans-serif;fill:#000000;fill-opacity:1;stroke:none;stroke-width:0.264583"
       x="-153.56868"
       y="-352.97202"
       id="text46768"><tspan
         sodipodi:role="line"
         id="tspan46766"
         style="stroke-width:0.264583"
         x="-153.56868"
         y="-352.97202">Pug Frontend</tspan></text>
    <text
       xml:space="preserve"
       style="font-style:normal;font-weight:normal;font-size:6.80185px;line-height:1.25;font-family:sans-serif;fill:#000000;fill-opacity:1;stroke:none;stroke-width:0.170046"
       x="-162.98711"
       y="-247.58507"
       id="text58497"><tspan
         sodipodi:role="line"
         id="tspan58495"
         style="stroke-width:0.170046"
         x="-162.98711"
         y="-247.58507">Features</tspan><tspan
         sodipodi:role="line"
         style="stroke-width:0.170046"
         x="-162.98711"
         y="-239.08275"
         id="tspan58499">- Session manager</tspan><tspan
         sodipodi:role="line"
         style="stroke-width:0.170046"
         x="-162.98711"
         y="-230.58044"
         id="tspan59095">- Real estate manager</tspan></text>
    <path
       style="fill:#ff0066;stroke:#aa0000;stroke-width:0.7;stroke-miterlimit:4;stroke-dasharray:none"
       id="path60970"
       d="m -138.21479,-181.1279 c 0.29081,-0.88559 0.61186,-1.7615 0.93195,-2.63692 0.71274,-1.94914 1.44497,-3.89108 2.15751,-5.84031 0.89553,-2.42514 1.72947,-4.87225 2.56039,-7.32006 0.38031,-1.09528 0.73774,-2.19818 1.09261,-3.30188 0,0 -2.60332,1.22656 -2.60332,1.22656 v 0 c -0.34931,1.09959 -0.70192,2.19814 -1.07724,3.28922 -0.82703,2.44839 -1.66205,4.89445 -2.56777,7.31514 -0.7269,1.95756 -1.47105,3.90861 -2.20715,5.86272 -0.33494,0.89021 -0.67057,1.78031 -0.99189,2.67555 0,0 2.70491,-1.27002 2.70491,-1.27002 z" />
    <path
       style="fill:#ff0066;stroke:#aa0000;stroke-width:0.7;stroke-miterlimit:4;stroke-dasharray:none"
       id="path60972"
       d="m -141.28328,-196.8816 c 0.7349,-0.69894 1.43644,-1.43177 2.13434,-2.16731 1.44618,-1.51866 2.90511,-3.02523 4.36641,-4.52935 1.69267,-1.75625 3.34975,-3.54613 5.01822,-5.32521 1.16454,-1.217 2.27261,-2.49052 3.51253,-3.63273 0.88191,-0.59667 2.64576,-1.88157 -1.45401,0.81952 -0.074,0.0487 0.17418,-0.0425 0.26271,-0.0398 0.22286,0.007 0.27821,0.0879 0.45375,0.21253 0.66388,0.78868 0.89871,1.835 1.16274,2.80753 0.39867,1.5911 0.76743,3.18944 1.15999,4.78203 0.40891,1.63678 0.95923,3.23121 1.52715,4.81797 0.22573,0.87863 0.80138,1.69581 0.85885,2.61513 -0.0676,0.15222 -0.009,0.11041 -0.17481,0.12578 0.80527,-0.48118 1.62262,-0.9427 2.41582,-1.44353 0.051,-0.0322 -0.11796,0.0299 -0.17825,0.0307 -0.17703,0.003 -0.37118,-0.0533 -0.53971,-0.091 -0.79736,-0.23377 -1.5963,-0.45681 -2.40703,-0.63958 -0.75703,-0.16865 -1.5225,-0.29484 -2.29628,-0.34932 -0.0976,-0.002 -0.19519,-0.004 -0.29278,-0.006 0,0 -2.3997,1.74594 -2.3997,1.74594 v 0 c 0.0952,-0.003 0.19046,-0.007 0.28569,-0.01 0.76814,0.0227 1.52785,0.14052 2.27883,0.30118 0.80672,0.17402 1.60426,0.38184 2.38888,0.63895 1.37516,0.40392 3.44131,0.36014 3.55285,-1.68612 -0.16188,-0.92571 -0.66924,-1.75228 -0.94221,-2.6454 -0.57536,-1.57262 -1.1231,-3.15644 -1.52422,-4.78423 -0.39007,-1.59714 -0.75473,-3.20026 -1.14442,-4.79749 -0.27504,-1.03974 -0.531,-2.13442 -1.22043,-2.98914 -1.50344,-1.32584 -3.15859,0.72138 -4.48564,1.6982 -1.20107,1.15989 -2.30345,2.41541 -3.45119,3.62708 -1.66044,1.78158 -3.31684,3.56712 -5.01163,5.31626 -1.47461,1.51349 -2.94813,3.02812 -4.4129,4.55114 -0.71801,0.74249 -1.43802,1.48484 -2.20608,2.17621 0,0 2.76253,-1.13024 2.76253,-1.13024 z" />
    <path
       style="fill:#ff0066;stroke:#aa0000;stroke-width:0.7;stroke-miterlimit:4;stroke-dasharray:none"
       id="path60978"
       d="m -105.21805,-208.10176 c -0.0439,1.01408 -0.23299,2.01187 -0.43492,3.00396 -0.43356,1.96369 -1.05483,3.87997 -1.65465,5.79758 -0.705,2.24975 -1.41384,4.49823 -2.10238,6.75309 -0.38966,1.25908 -0.76044,2.52383 -1.12485,3.7904 0,0 2.62056,-1.24494 2.62056,-1.24494 v 0 c 0.35534,-1.26152 0.71787,-2.52103 1.10245,-3.77402 0.68365,-2.255 1.3895,-4.50304 2.10061,-6.74952 0.60828,-1.93319 1.24206,-3.86354 1.68302,-5.84354 0.21124,-1.01547 0.39976,-2.03621 0.47693,-3.07212 0,0 -2.66677,1.33911 -2.66677,1.33911 z" />
    <path
       style="fill:#ff0066;stroke:#aa0000;stroke-width:0.7;stroke-miterlimit:4;stroke-dasharray:none"
       id="path60980"
       d="m -118.90525,-193.33529 c 0.14976,0.75001 0.25978,1.50687 0.38886,2.26051 0.25244,1.45728 0.49677,2.91583 0.77127,4.36915 0.33407,1.81974 0.80313,3.60897 1.3723,5.36823 0.48462,1.52175 1.16726,2.96038 1.99755,4.32092 0.53722,0.85163 1.15494,1.64843 1.83773,2.38751 0.31294,0.32253 0.65466,0.62304 1.10036,0.72738 1.31623,0.0321 2.39977,-1.03249 3.24099,-1.96618 0.44022,-0.53945 0.98075,-0.98412 1.51461,-1.42649 1.10635,-0.88804 2.25704,-1.71918 3.41859,-2.53301 1.46011,-1.00086 2.93595,-1.97837 4.395599,-2.97993 0.879705,-0.66335 1.940449,-1.20406 2.538693,-2.16243 0.301643,-0.82339 -0.584743,-1.16164 -1.196182,-1.4239 -1.560025,-0.55937 -3.16365,-0.9891 -4.75765,-1.43951 -1.80465,-0.50568 -3.61317,-0.99765 -5.41571,-1.51081 0,0 -2.40088,1.6456 -2.40088,1.6456 v 0 c 1.81,0.50411 3.62678,0.98388 5.43429,1.49712 1.572,0.45041 3.15078,0.88782 4.690015,1.44231 0.455887,0.18885 1.294421,0.34712 0.928211,0.97113 -0.677185,0.85741 -1.659236,1.40217 -2.525906,2.04303 -1.46,1.00076 -2.93674,1.97675 -4.39322,2.98264 -1.17095,0.82629 -2.33574,1.66405 -3.44627,2.57084 -0.54154,0.45955 -1.07532,0.92914 -1.52965,1.47794 -0.0775,0.0866 -0.15466,0.17976 -0.24378,0.25565 -0.0347,0.0295 -0.15002,0.10317 -0.1104,0.0807 3.70579,-2.10564 3.10497,-1.90551 2.27872,-1.27297 -0.39318,0.10199 -0.72527,-0.29051 -0.99291,-0.51802 -0.68656,-0.71075 -1.30161,-1.48654 -1.83692,-2.31792 -0.82932,-1.33361 -1.50791,-2.74788 -1.98694,-4.24689 -0.56517,-1.74848 -1.02692,-3.52793 -1.3487,-5.33829 -0.26484,-1.45677 -0.50136,-2.91836 -0.73761,-4.38001 -0.11805,-0.75871 -0.22973,-1.51852 -0.34331,-2.27786 0,0 -2.64175,1.3936 -2.64175,1.3936 z" />
    <path
       style="fill:#ff0066;stroke:#aa0000;stroke-width:0.7;stroke-miterlimit:4;stroke-dasharray:none"
       id="path60982"
       d="m -18.190647,-177.75706 c -0.42104,-0.78897 -0.85173,-1.57269 -1.28439,-2.35538 -0.8354,-1.4883 -1.56196,-3.0323 -2.2491,-4.59337 -0.8428,-1.97754 -1.60288,-3.98868 -2.35502,-6.00199 -0.67245,-1.87181 -1.44812,-3.70259 -2.24571,-5.52362 -0.10932,-0.2419 -0.21865,-0.48381 -0.32798,-0.72572 0,0 -2.53473,1.4317 -2.53473,1.4317 v 0 c 0.11103,0.23959 0.22207,0.47917 0.3331,0.71875 0.8101,1.80841 1.58908,3.63048 2.25939,5.49631 0.75453,2.01845 1.51795,4.03424 2.35325,6.02096 0.68278,1.57303 1.40416,3.12944 2.22693,4.63508 0.42203,0.78522 0.84634,1.56969 1.23003,2.37464 0,0 2.59423,-1.47736 2.59423,-1.47736 z" />
    <path
       style="fill:#ff0066;stroke:#aa0000;stroke-width:0.7;stroke-miterlimit:4;stroke-dasharray:none"
       id="path60984"
       d="m -33.392527,-193.89307 c 0.0249,-0.87649 0.0374,-1.75323 0.0488,-2.62997 0.008,-1.5033 -0.0482,-3.00564 -0.10823,-4.50741 -0.0567,-1.54931 -0.18052,-3.0937 -0.33525,-4.63584 -0.10952,-1.04317 -0.25984,-2.08133 -0.38995,-3.12192 -0.004,-0.0757 -0.0388,-0.32151 0.0202,-0.41514 0.0181,-0.0288 0.12229,-0.0591 0.0933,-0.0413 -0.8121,0.49817 -1.63963,0.97137 -2.4434,1.48289 -0.0361,0.023 0.0865,-0.0197 0.12803,-0.009 0.0736,0.0183 0.1384,0.062 0.2076,0.093 0.90278,0.60721 1.8498,1.13132 2.82734,1.60713 1.8456,0.86279 3.83439,1.31307 5.82166,1.70745 2.39353,0.44378 4.82403,0.61245 7.25245,0.71313 1.64855,0.0637 3.29874,0.0196 4.94757,0.0555 0.22111,0.0214 1.44338,0.002 1.08381,0.49261 -0.62211,0.69381 -1.38813,1.23366 -2.14013,1.77499 -1.35729,0.96463 -2.76548,1.85433 -4.17948,2.73271 -0.9445,0.5862 -1.90294,1.14926 -2.85954,1.71532 0,0 2.71973,-1.0476 2.71973,-1.0476 v 0 c 0.95193,-0.56531 1.90387,-1.1307 2.84373,-1.71599 1.42053,-0.8864 2.83433,-1.78586 4.19594,-2.76134 0.76431,-0.5591 1.65804,-1.11908 2.10749,-1.97839 0.0537,-0.81823 -0.72636,-0.9029 -1.39302,-0.93279 -1.66518,-0.0338 -3.33163,0.0422 -4.99694,-0.0138 -2.41971,-0.083 -4.84184,-0.23964 -7.22739,-0.67562 -1.95919,-0.38503 -3.92151,-0.82173 -5.74089,-1.67165 -0.9653,-0.47249 -1.90867,-0.98482 -2.77407,-1.62673 -0.11109,-0.0698 -0.42117,-0.2696 -0.4411,-0.25981 -2.01103,0.98736 -2.84941,0.69406 -2.67272,2.15554 0.15711,1.02886 0.30698,2.05887 0.42116,3.09357 0.15981,1.53454 0.28247,3.07196 0.33708,4.61428 0.0574,1.5003 0.10559,3.00152 0.0799,4.50315 -0.0202,0.88116 -0.0368,1.76323 -0.1005,2.64256 0,0 2.66679,-1.33911 2.66679,-1.33911 z" />
    <path
       style="fill:#ff0066;stroke:#aa0000;stroke-width:0.7;stroke-miterlimit:4;stroke-dasharray:none"
       id="path60988"
       d="m 0.08104317,-203.51799 c 0.36874,0.78671 0.71517,1.58368 1.07595003,2.37409 0.76397,1.665 1.53265,3.32756 2.32768,4.97799 0.94976,1.99976 1.99388,3.95223 3.04533,5.89973 0.61258,1.12917 1.24625,2.24658 1.89283,3.35654 0,0 2.5122398,-1.45321 2.5122398,-1.45321 v 0 c -0.65454,-1.10131 -1.2929698,-2.21198 -1.9073598,-3.33629 -1.05389,-1.94083 -2.09859,-3.88781 -3.03722,-5.88781 -0.78613,-1.6534 -1.54378,-3.3197 -2.28341,-4.99443 -0.34997,-0.79872 -0.69098,-1.60118 -1.02603,-2.40627 0,0 -2.60001003,1.46966 -2.60001003,1.46966 z" />
    <path
       style="fill:#ff0066;stroke:#aa0000;stroke-width:0.7;stroke-miterlimit:4;stroke-dasharray:none"
       id="path60990"
       d="m 3.0162432,-181.91802 c 0.7903,-0.4833 1.58449,-0.95966 2.36925,-1.45201 1.57266,-0.96287 3.14672,-1.92322 4.7052998,-2.90879 1.62377,-1.02981 3.23365,-2.08092 4.84449,-3.13072 0.98086,-0.74082 5.28815,-3.2231 0.59483,-0.4699 0.607,-0.31219 1.18331,-0.40737 1.77804,-0.0486 0.59424,0.49502 0.86078,1.2168 1.05837,1.94056 0.23209,1.05219 0.12997,2.12645 0.0209,3.1862 -0.12773,1.14149 -0.34338,2.27055 -0.59267,3.39101 -0.18358,0.79468 -0.35301,1.59228 -0.54517,2.38492 -0.12849,0.60521 -0.30892,1.19612 -0.52471,1.77538 -0.2175,0.58488 -0.48575,1.14821 -0.76145,1.70731 -0.24243,0.50821 -0.49261,1.01263 -0.76106,1.50763 -0.60087,1.05716 -2.18945,1.57611 1.9955,-0.8917 -0.58565,-0.0212 -1.17428,-0.49872 -1.67416,-0.77846 -1.3074,-0.75309 -2.66149,-1.41696 -4.03381,-2.04188 -0.96546,-0.43296 -1.9462998,-0.82958 -2.9304298,-1.21766 0,0 -2.42204,1.62579 -2.42204,1.62579 v 0 c 0.98495,0.3791 1.96593,0.76858 2.9299,1.19892 1.3619298,0.61597 2.7061598,1.27157 3.9909798,2.03813 0.57768,0.33402 1.1382,0.71332 1.75536,0.97056 1.92736,-1.05621 2.42428,-0.80266 3.10042,-2.12322 0.25756,-0.50035 0.50681,-1.00479 0.7492,-1.51268 0.27461,-0.5679 0.53605,-1.14267 0.74908,-1.737 0.20582,-0.59071 0.37792,-1.19153 0.50715,-1.80396 0.18439,-0.79185 0.34669,-1.58857 0.52466,-2.38187 0.23631,-1.13043 0.44755,-2.26717 0.56954,-3.41642 0.10746,-1.09575 0.19816,-2.20621 -0.0565,-3.29043 -0.22235,-0.79236 -0.52685,-1.56467 -1.15264,-2.12971 -0.62811,-0.4531 -1.254,-0.52587 -1.97291,-0.19702 -1.89964,1.07444 -3.81663,2.11173 -5.6029,3.37017 -1.60268,1.05 -3.2091398,2.09401 -4.8278698,3.1192 -1.57107,0.98755 -3.15678,1.95115 -4.73929,2.9202 -0.80601,0.49789 -1.62043,0.98165 -2.42968003,1.4742 0,0 2.78431003,-1.07818 2.78431003,-1.07818 z" />
    <path
       style="fill:#ff0066;stroke:#aa0000;stroke-width:0.7;stroke-miterlimit:4;stroke-dasharray:none"
       id="path60992"
       d="m -97.274582,-309.26469 c -0.0089,-0.84469 -0.03611,-1.68881 -0.07153,-2.53278 -0.09465,-1.86742 -0.247232,-3.73134 -0.388565,-5.59565 -0.157054,-2.22436 -0.32634,-4.44768 -0.509656,-6.67001 -0.110347,-1.2386 -0.219427,-2.47729 -0.344321,-3.71451 0,0 -2.576576,1.34698 -2.576576,1.34698 v 0 c 0.13431,1.23089 0.25277,2.46338 0.36597,3.69639 0.1896,2.22079 0.35973,4.44299 0.50937,6.66686 0.13376,1.86776 0.27661,3.73581 0.340095,5.60758 0.0213,0.85035 0.03828,1.70113 0.01297,2.55162 0,0 2.662242,-1.35648 2.662243,-1.35648 z" />
    <path
       style="fill:#ff0066;stroke:#aa0000;stroke-width:0.7;stroke-miterlimit:4;stroke-dasharray:none"
       id="path60994"
       d="m -109.27518,-325.84869 c 0.53562,-0.5671 0.98124,-1.20789 1.43313,-1.84117 0.83844,-1.20547 1.61998,-2.44873 2.3916,-3.69755 0.86826,-1.38696 1.64137,-2.83011 2.38309,-4.28771 0.5091,-1.01592 0.95842,-2.06131 1.52392,-3.04802 0.13779,-0.19101 0.24703,-0.36811 0.42564,-0.5238 0.0677,-0.059 0.30046,-0.19639 0.22298,-0.15104 -4.19346,2.45505 -2.87718,1.34182 -1.84569,1.28571 0.75651,0.10506 1.38948,0.57379 2.00113,0.99835 0.950105,0.6837 1.81791,1.47063 2.671326,2.2692 0.850125,0.79344 1.624997,1.66071 2.339967,2.57658 0.516496,0.66588 0.936895,1.39179 1.212636,2.188 0.208092,0.62607 0.156183,1.21221 -0.124487,1.79867 -0.245454,0.39482 -0.588521,0.71238 -0.981157,0.95839 -0.11198,0.0702 -0.459208,0.26172 -0.345464,0.19445 0.7189,-0.42515 1.440667,-0.84543 2.161003,-1.26814 -0.513987,0.26054 -1.0639,0.43319 -1.613477,0.59952 0,0 -2.337718,1.80203 -2.337718,1.80203 v 0 c 0.557633,-0.15679 1.115634,-0.3188 1.646153,-0.55482 1.337146,-0.75838 3.352059,-1.45281 4.163161,-2.9724 0.238209,-0.66186 0.256532,-1.31927 0.02106,-1.99081 -0.301294,-0.8201 -0.734972,-1.57353 -1.274966,-2.26165 -0.727847,-0.92521 -1.516046,-1.80089 -2.373775,-2.60828 -0.858785,-0.80941 -1.731158,-1.60736 -2.679205,-2.31252 -0.642525,-0.46134 -1.296342,-0.94358 -2.073077,-1.14853 -1.56922,-0.24276 -3.11281,1.03733 -3.9115,2.32698 -0.53233,0.99579 -0.97897,2.03325 -1.48576,3.04193 -0.74022,1.45032 -1.51375,2.8847 -2.38476,4.26158 -0.77968,1.25002 -1.57143,2.49348 -2.42937,3.69179 -0.46267,0.63317 -0.92816,1.26949 -1.49461,1.81576 0,0 2.75822,-1.1425 2.75822,-1.1425 z" />
    <path
       style="fill:#ff0066;stroke:#aa0000;stroke-width:0.7;stroke-miterlimit:4;stroke-dasharray:none"
       id="path60996"
       d="m -79.183059,-334.92012 c 0.113257,1.04643 0.194826,2.09588 0.280754,3.14481 0.155705,1.93237 0.23625,3.86958 0.308579,5.80651 0.06373,2.07129 0.137453,4.14213 0.280196,6.20962 0.02199,0.28951 0.04395,0.57902 0.06593,0.86852 0,0 2.575912,-1.33829 2.575912,-1.33829 v 0 c -0.02381,-0.28769 -0.04765,-0.57539 -0.07148,-0.86309 -0.152463,-2.06178 -0.229301,-4.12754 -0.288594,-6.19395 -0.06955,-1.94521 -0.146048,-3.89058 -0.283223,-5.83242 -0.07391,-1.05679 -0.155218,-2.1133 -0.217604,-3.17078 0,0 -2.650469,1.36907 -2.65047,1.36907 z" />
    <path
       style="fill:#ff0066;stroke:#aa0000;stroke-width:0.7;stroke-miterlimit:4;stroke-dasharray:none"
       id="path60998"
       d="m -85.641427,-320.27524 c 0.723723,0.0405 1.448557,0.0543 2.173174,0.0679 1.36254,0.0227 2.725263,0.0307 4.087955,0.0381 1.691529,0.0107 3.382965,0.0199 5.074473,0.004 1.273688,-0.0299 2.547565,-0.0233 3.815935,0.10303 0.60271,0.0789 1.2647,0.15079 1.66754,0.6513 0.29231,0.6332 0.0546,1.32365 -0.16308,1.94169 -0.43216,1.16128 -1.16489,2.16566 -1.91776,3.13619 -0.91543,1.14931 -1.934314,2.20756 -2.970711,3.24667 -0.716653,0.73924 -1.448991,1.46432 -2.256904,2.10399 -0.955778,0.63928 -0.7636,0.50319 2.0408,-1.17461 0.0572,-0.0342 -0.118811,0.0621 -0.182583,0.0815 -0.234784,0.0713 -0.384887,-0.041 -0.577091,-0.16132 -0.784415,-0.70278 -1.398754,-1.57489 -2.017937,-2.42088 -0.775388,-1.07787 -1.509676,-2.18431 -2.268321,-3.27387 -0.261781,-0.38003 -0.542293,-0.74614 -0.82709,-1.10898 0,0 -2.536796,1.51627 -2.536796,1.51627 v 0 c 0.288375,0.35331 0.572162,0.71028 0.835374,1.08305 0.771285,1.08276 1.50925,2.18867 2.280148,3.27174 0.630489,0.87585 1.25721,1.76866 2.030783,2.526 0.166965,0.13018 0.290967,0.24809 0.489571,0.32661 0.116192,0.0459 0.337902,0.0901 0.460426,0.0233 2.413905,-1.31566 1.963245,-0.98813 3.017136,-1.79359 0.781135,-0.65954 1.500275,-1.38595 2.212135,-2.11888 1.03273,-1.04859 2.04522,-2.1193 2.95326,-3.27963 0.75794,-1.00151 1.48813,-2.04017 1.90428,-3.2374 0.227,-0.72647 0.42051,-1.49458 0.0472,-2.20873 -0.44381,-0.58662 -1.10922,-0.76 -1.82035,-0.83666 -1.28431,-0.13773 -2.57508,-0.14568 -3.86559,-0.10851 -1.689556,0.022 -3.379008,0.015 -5.068621,-0.002 -1.35322,-0.012 -2.706484,-0.0247 -4.059468,-0.0536 -0.709914,-0.0171 -1.420376,-0.0322 -2.128954,-0.0814 0,0 -2.428954,1.73835 -2.428954,1.73835 z" />
    <text
       xml:space="preserve"
       style="font-style:normal;font-weight:normal;font-size:12.0918px;line-height:1.25;font-family:sans-serif;fill:#000000;fill-opacity:1;stroke:none;stroke-width:0.302296"
       x="-116.29559"
       y="-368.23013"
       id="text72262"><tspan
         sodipodi:role="line"
         id="tspan72260"
         style="stroke-width:0.302296"
         x="-116.29559"
         y="-368.23013">good-roots</tspan></text>
    <rect
       style="fill:#ff0066;fill-opacity:1;stroke:#aa0000;stroke-width:0.7;stroke-miterlimit:4;stroke-dasharray:none"
       id="rect73885"
       width="27.1574"
       height="27.635693"
       x="-392.49951"
       y="-289.98584"
       ry="4.9265418" />
    <text
       xml:space="preserve"
       style="font-style:normal;font-weight:normal;font-size:10.5833px;line-height:1.25;font-family:sans-serif;fill:#000000;fill-opacity:1;stroke:none;stroke-width:0.264583"
       x="-384.34451"
       y="-305.43585"
       id="text77871"><tspan
         sodipodi:role="line"
         id="tspan77869"
         style="stroke-width:0.264583"
         x="-384.34451"
         y="-305.43585">Color picker</tspan></text>
    <rect
       style="fill:#ff2a2a;fill-opacity:1;stroke:#ff6600;stroke-width:0.781758;stroke-miterlimit:4;stroke-dasharray:none"
       id="rect86837"
       width="148.54996"
       height="33.167622"
       x="-137.27449"
       y="-120.84874"
       ry="5.746254" />
    <text
       xml:space="preserve"
       style="font-style:normal;font-weight:normal;font-size:10.5833px;line-height:1.25;font-family:sans-serif;fill:#000000;fill-opacity:1;stroke:none;stroke-width:0.264583"
       x="-123.65525"
       y="-109.48778"
       id="text116209"><tspan
         sodipodi:role="line"
         id="tspan116207"
         style="stroke-width:0.264583"
         x="-123.65525"
         y="-109.48778">backdoor-server-access</tspan></text>
    <text
       xml:space="preserve"
       style="font-style:normal;font-weight:normal;font-size:10.5833px;line-height:1.25;font-family:sans-serif;fill:#000000;fill-opacity:1;stroke:none;stroke-width:0.264583"
       x="-123.23289"
       y="-94.382187"
       id="text122945"><tspan
         sodipodi:role="line"
         id="tspan122943"
         style="stroke-width:0.264583"
         x="-123.23289"
         y="-94.382187">For testing mainly</tspan></text>
    <path
       style="fill:#ff0066;fill-opacity:1;stroke:#aa0000;stroke-width:0.7;stroke-miterlimit:4;stroke-dasharray:none"
       id="path125850"
       d="m -116.11522,-124.51917 c -0.73941,-0.39214 -1.50138,-0.74002 -2.26098,-1.09077 -1.04071,-0.45792 -2.06481,-0.95031 -3.06155,-1.49728 -0.97708,-0.51573 -1.78333,-1.24333 -2.48907,-2.08272 -0.82613,-1.04982 -1.34088,-2.2868 -1.79237,-3.53195 -0.52657,-1.52454 -0.88847,-3.09831 -1.21194,-4.67627 -0.25733,-1.36905 -0.48456,-2.74347 -0.73394,-4.114 0,0 -2.58844,1.37931 -2.58844,1.37931 v 0 c 0.25924,1.3683 0.493,2.7412 0.75682,4.1086 0.33265,1.59005 0.69995,3.17655 1.22722,4.71518 0.46002,1.27873 0.98562,2.54765 1.82636,3.62979 0.7198,0.87244 1.54003,1.63703 2.54409,2.17721 0.99973,0.55467 2.02775,1.05328 3.0744,1.51352 0.74353,0.34591 1.48874,0.69217 2.20354,1.09511 0,0 2.50586,-1.62573 2.50586,-1.62573 z" />
    <path
       style="fill:#ff0066;fill-opacity:1;stroke:#aa0000;stroke-width:0.7;stroke-miterlimit:4;stroke-dasharray:none"
       id="path125852"
       d="m -135.33914,-138.16546 c -0.01,-0.76055 0.0439,-1.52057 0.0771,-2.28015 0.0787,-1.30174 0.13824,-2.60441 0.18667,-3.90759 0.0647,-1.45811 0.0552,-2.91736 -0.0115,-4.37496 -0.0551,-1.24684 -0.15885,-2.49058 -0.25294,-3.73486 -0.0795,-0.86734 -0.16373,-1.73427 -0.24865,-2.6011 0.0141,-0.2956 -0.21057,-0.85575 0.0684,-1.08036 1.01787,-0.17745 -0.0618,-2.2e-4 -2.32308,1.42054 -0.0417,0.0262 0.0979,-0.0142 0.14711,-0.0125 0.21397,0.007 0.4144,0.10286 0.60895,0.18053 0.78058,0.36359 1.53514,0.78023 2.29852,1.17806 1.17753,0.61137 2.36248,1.20818 3.54196,1.81582 1.36236,0.70365 2.69316,1.46581 4.00182,2.26431 1.26501,0.77495 2.46774,1.64348 3.62703,2.56758 0.87041,0.69852 1.66068,1.4872 2.47388,2.24936 0.37171,0.36083 0.78484,0.689 1.1057,1.09862 0.0115,0.0294 0.0647,0.0964 -0.002,0.11692 -1.35435,0.41672 3.47944,-1.7719 1.83075,-1.27809 -1.0868,0.26962 -2.13046,0.67758 -3.17447,1.07623 -1.50675,0.57452 -3.00775,1.16336 -4.5258,1.70756 -0.2282,0.0793 -0.4564,0.15849 -0.6846,0.23773 0,0 -2.30265,1.79329 -2.30265,1.79329 v 0 c 0.23019,-0.0796 0.46037,-0.1592 0.69056,-0.2388 1.51835,-0.54094 3.01939,-1.12675 4.52582,-1.69977 1.02637,-0.39092 2.04856,-0.80635 3.11713,-1.07028 1.29108,-0.30304 0.42708,-0.0734 3.06049,-1.5816 0.21643,-0.12395 0.119,-0.43116 0.0259,-0.59156 -0.33479,-0.42165 -0.76451,-0.75736 -1.1576,-1.12178 -0.83183,-0.7556 -1.62951,-1.55003 -2.50751,-2.25364 -1.17049,-0.93028 -2.38372,-1.80562 -3.65706,-2.59094 -1.31039,-0.8051 -2.64221,-1.57546 -4.00611,-2.28682 -1.17497,-0.60812 -2.35448,-1.20749 -3.52448,-1.82504 -0.76293,-0.40272 -1.51702,-0.82207 -2.28542,-1.21441 -1.25322,-0.5732 -2.80439,-0.65248 -3.62925,1.28524 -0.09,0.40591 -0.0149,0.81829 0.0308,1.22615 0.0961,0.86032 0.1848,1.7215 0.26608,2.58333 0.10053,1.23826 0.20892,2.47611 0.26534,3.71743 0.0639,1.45053 0.0673,2.90258 5e-5,4.35332 -0.0535,1.30549 -0.11977,2.61031 -0.20626,3.91407 -0.0425,0.77095 -0.0971,1.54162 -0.11114,2.31381 0,0 2.66059,-1.35564 2.66059,-1.35564 z" />
    <path
       style="fill:#ff0066;fill-opacity:1;stroke:#aa0000;stroke-width:0.7;stroke-miterlimit:4;stroke-dasharray:none"
       id="path125854"
       d="m -113.17408,-148.49226 c 0.13998,0.87856 0.24323,1.76218 0.37781,2.64159 0.21131,1.42784 0.50157,2.84079 0.86492,4.23725 0.40555,1.55894 1.03986,3.03329 1.81686,4.43938 0.80716,1.43322 1.97929,2.55952 3.24462,3.58291 0.84785,0.67842 1.79615,1.20865 2.7425,1.73326 0,0 2.43929,-1.59168 2.43929,-1.59168 v 0 c -0.93805,-0.50898 -1.87804,-1.02413 -2.71859,-1.68792 -1.24247,-0.99293 -2.39343,-2.0872 -3.1838,-3.48762 -0.76627,-1.38442 -1.38713,-2.83857 -1.77921,-4.37602 -0.3547,-1.39028 -0.63504,-2.79692 -0.83422,-4.21832 -0.12388,-0.88434 -0.22668,-1.77139 -0.32745,-2.65861 0,0 -2.64273,1.38578 -2.64273,1.38578 z" />
    <path
       style="fill:#ff0066;fill-opacity:1;stroke:#aa0000;stroke-width:0.7;stroke-miterlimit:4;stroke-dasharray:none"
       id="path125860"
       d="m -109.46848,-124.78556 c 0.67675,-0.54059 1.31701,-1.12395 1.95527,-1.70886 1.32571,-1.24875 2.62958,-2.52047 3.94856,-3.77645 1.51957,-1.42251 3.08568,-2.79321 4.704077,-4.10194 1.20749,-0.96902 2.454772,-1.8873 3.74813,-2.7382 0.786873,-0.49385 2.206551,-1.37756 -1.604365,0.91301 -0.127209,0.0765 0.262083,-0.13991 0.397664,-0.20029 0.358947,-0.15985 0.691729,-0.22699 1.079357,-0.25984 0.82863,0.0199 1.438079,0.51678 1.978202,1.09391 0.727599,0.90879 1.142582,2.00794 1.553237,3.08402 0.452977,1.21868 0.813892,2.46912 1.179708,3.71605 0.230044,0.90416 0.610835,1.77446 0.755309,2.6987 -0.0167,0.0723 -0.01106,0.15377 -0.0501,0.21688 -0.03518,0.0569 -0.106272,0.0812 -0.159408,0.12181 0.761404,-0.46754 1.540168,-0.90794 2.284216,-1.40266 0.09502,-0.0632 -0.214841,0.0803 -0.326993,0.10133 -0.308084,0.0578 -0.684025,0.0471 -0.990976,0.0509 -1.468974,-0.0249 -2.930377,-0.18346 -4.388604,-0.3501 -1.632696,-0.19894 -3.262651,-0.41894 -4.896371,-0.60941 -1.321869,-0.15537 -2.645393,-0.29208 -3.976093,-0.3342 -0.74842,-0.0233 -1.49253,0.0295 -2.22703,0.17108 0,0 -2.35587,1.79054 -2.35587,1.79054 v 0 c 0.7227,-0.17775 1.45802,-0.25524 2.20349,-0.24127 1.33218,0.0196 2.65702,0.14682 3.98019,0.29853 1.635416,0.18423 3.266848,0.4001 4.899589,0.60637 1.45642,0.17375 2.915052,0.33962 4.381796,0.39444 1.535385,0.0393 4.214656,-0.191 4.237371,-2.20692 -0.191871,-0.92337 -0.549196,-1.80318 -0.797208,-2.712 -0.374245,-1.25153 -0.742199,-2.50669 -1.196422,-3.73213 -0.42204,-1.11205 -0.849096,-2.24507 -1.589791,-3.19118 -0.574535,-0.63968 -1.225101,-1.19431 -2.109259,-1.31182 -1.839354,-0.0337 -3.518807,1.50239 -4.991645,2.36241 -1.27364,0.86075 -2.506851,1.77938 -3.700001,2.74889 -1.6098,1.31905 -3.17216,2.69415 -4.68867,4.11972 -1.32939,1.26312 -2.64157,2.54463 -3.99095,3.78637 -0.6558,0.58873 -1.3117,1.18129 -2.02388,1.70212 0,0 2.77747,-1.09985 2.77747,-1.09985 z" />
    <path
       style="fill:#ff0066;fill-opacity:1;stroke:#aa0000;stroke-width:0.7;stroke-miterlimit:4;stroke-dasharray:none"
       id="path125862"
       d="m -28.519607,-125.1437 c -0.10438,-0.79898 -0.20824,-1.59789 -0.29942,-2.3985 -0.21413,-1.4537 -0.0677,-2.90271 0.19562,-4.33699 0.41059,-1.9108 1.17028,-3.71226 2.00798,-5.46872 0.88124,-1.74252 1.8542,-3.43662 2.84705,-5.11737 0.13958,-0.23679 0.27916,-0.47359 0.41874,-0.71038 0,0 -2.65741,1.18104 -2.65741,1.18104 v 0 c -0.13752,0.23585 -0.27503,0.4717 -0.41254,0.70755 -0.98278,1.68738 -1.95209,3.38455 -2.82133,5.13391 -0.83623,1.78206 -1.59223,3.61044 -1.99331,5.54627 -0.25777,1.46523 -0.39522,2.9433 -0.18709,4.42658 0.0846,0.80365 0.18933,1.60576 0.2501,2.41157 0,0 2.65161,-1.37496 2.65161,-1.37496 z" />
    <path
       style="fill:#ff0066;fill-opacity:1;stroke:#aa0000;stroke-width:0.7;stroke-miterlimit:4;stroke-dasharray:none"
       id="path125864"
       d="m -31.686917,-140.82515 c 0.69016,-0.57435 1.38835,-1.13896 2.08591,-1.70425 1.23412,-0.99768 2.53183,-1.91185 3.82929,-2.82418 1.39565,-0.97493 2.81142,-1.92046 4.24644,-2.83635 0.28808,-0.17854 3.71925,-2.29674 -1.27462,0.71565 -0.17473,0.1054 0.35816,-0.19608 0.54217,-0.28429 0.45716,-0.21916 0.88237,-0.33849 1.38062,-0.40867 0.90584,-0.0514 1.43921,0.49095 1.90081,1.19661 0.55857,0.97943 0.77625,2.08824 0.96064,3.18669 0.17391,1.15456 0.26266,2.32125 0.3143,3.4872 -0.0331,0.61466 0.18453,1.52053 -0.40701,1.92041 4.12204,-2.47173 2.77743,-1.21207 1.63856,-1.34841 -0.53894,-0.0645 -1.05642,-0.25269 -1.56959,-0.41819 -1.31603,-0.45195 -2.61618,-0.94817 -3.92956,-1.40766 -0.78098,-0.26427 -0.39851,-0.13363 -1.14748,-0.39166 0,0 -2.42966,1.64581 -2.42966,1.64581 v 0 c 0.75476,0.25593 0.36993,0.12731 1.15463,0.3855 1.31644,0.45037 2.61755,0.9429 3.92672,1.4137 2.65799,0.91307 1.98721,0.80098 5.09971,-1.02578 0.39758,-0.63019 0.28673,-1.40868 0.27835,-2.12274 -0.0674,-1.17427 -0.15947,-2.34936 -0.34061,-3.51218 -0.19428,-1.13781 -0.42927,-2.28289 -1.00376,-3.2993 -0.49813,-0.77899 -1.0888,-1.42959 -2.07637,-1.46709 -0.73919,0.0421 -1.37196,0.24271 -2.02011,0.61006 -2.62967,1.49041 -2.21754,1.24187 -3.71088,2.18053 -1.42832,0.92245 -2.84203,1.86723 -4.23349,2.84456 -1.30508,0.91962 -2.60658,1.84619 -3.8473,2.85219 -0.71309,0.57476 -1.42727,1.14827 -2.13413,1.73069 0,0 2.76642,-1.11885 2.76642,-1.11885 z" />
    <path
       style="fill:#ff0066;fill-opacity:1;stroke:#aa0000;stroke-width:0.7;stroke-miterlimit:4;stroke-dasharray:none"
       id="path125872"
       d="m 7.9061532,-152.23547 c -0.65453,-0.0761 -1.28127,0.0406 -1.90261,0.23802 -2.07327,0.83845 -3.89848,2.09737 -5.43772003,3.69325 -1.28513,1.41496 -2.41256997,2.9604 -3.48875997,4.53694 -1.02278,1.50801 -1.89357,3.1083 -2.69094,4.74432 -0.49368,0.97371 -0.87418,1.99262 -1.16347,3.04339 0,0 2.65492,-1.26289 2.65492,-1.26289 v 0 c 0.29179,-1.02935 0.67718,-2.02532 1.15837,-2.98227 0.79465,-1.62168 1.66609,-3.20544 2.68860997,-4.6966 1.08395,-1.56953 2.21915003,-3.10988 3.53086003,-4.49925 0.45209,-0.44898 0.61464,-0.6308 1.09568,-1.0322 0.16622,-0.1387 0.70773,-0.49272 0.51281,-0.39853 -3.99181003,1.92879 -2.04213,1.2023 -1.18936,0.66981 0.57892,-0.22596 1.17442,-0.39496 1.8027,-0.31561 0,0 2.42891,-1.73838 2.42891,-1.73838 z" />
    <path
       style="fill:#ff0066;fill-opacity:1;stroke:#aa0000;stroke-width:0.7;stroke-miterlimit:4;stroke-dasharray:none"
       id="path125874"
       d="m -13.511677,-137.63718 c 0.67681,0.31059 1.37483,0.5704 2.07058,0.83452 1.27349,0.47327 2.5722602,0.87335 3.8746802,1.25809 1.49985,0.44125 3.00118,0.87744 4.50204,1.31524 1.05664,0.31901 2.13305997,0.61066 3.10748997,1.13977 0.7383,0.51843 0.52229,0.93287 0.0548,1.56181 -0.12205,0.12978 -0.23718,0.26644 -0.36615,0.38936 -0.546,0.52039 -1.17616997,0.95928 -1.81665997,1.35358 -0.27476,0.16915 -1.10991,0.65834 -0.83721,0.48586 0.5009,-0.31679 1.01471,-0.61267 1.52207,-0.919 -2.23996,1.13231 -4.58951,2.02649 -6.93194,2.91986 -1.9014602,0.71787 -3.8092802,1.41875 -5.7239302,2.10063 -0.87257,0.27035 -1.75759,0.68945 -2.69014,0.65693 -0.5434,-0.13813 -0.3279,-0.81219 -0.25794,-1.21689 0.2584,-1.06315 0.61565,-2.09868 0.92789,-3.14656 0.32395,-1.10646 0.57602,-2.23166 0.81039,-3.35987 0.15695,-0.77046 0.35872,-1.52974 0.5734,-2.2857 0.14242,-0.52142 0.31038,-1.0354 0.48609,-1.54639 0.0234,-0.0716 0.0467,-0.14327 0.0701,-0.21491 0,0 -2.69219,1.26567 -2.69219,1.26567 v 0 c -0.0234,0.0707 -0.0469,0.14133 -0.0703,0.212 -0.17185,0.51393 -0.32793,1.03322 -0.46941,1.55635 -0.2088,0.75869 -0.39432,1.52321 -0.54668,2.29542 -0.23005,1.11958 -0.48151,2.23549 -0.8104,3.33087 -0.32363,1.06058 -0.69317,2.11034 -0.93371,3.19399 -0.0883,0.61553 -0.17469,1.324 0.49065,1.6342 0.96338,0.17492 1.91641,-0.31094 2.81735,-0.5842 1.9291,-0.69247 3.85077,-1.40536 5.76869,-2.12817 2.3400302,-0.88959 4.6866202,-1.77814 6.9374002,-2.87915 2.05521,-1.15586 4.84633,-2.39143 6.44393,-4.29805 0.47294,-0.81097 0.52192,-1.38728 -0.28218,-1.99038 -0.98869,-0.55806 -2.09043003,-0.85467 -3.17353003,-1.17495 -1.50338997,-0.43044 -3.00508997,-0.86699 -4.50437997,-1.31152 -1.2908,-0.38161 -2.5768,-0.78194 -3.83748,-1.25517 -0.68058,-0.26473 -1.3688402,-0.51625 -2.0231602,-0.84238 0,0 -2.49008,1.64914 -2.49008,1.64914 z" />
    <rect
       style="fill:#00ccff;fill-opacity:0.499181;stroke:#ff6600;stroke-width:0.290218"
       id="rect1357-0"
       width="370.70929"
       height="453.25818"
       x="132.1456"
       y="-510.68451"
       ry="37.772568" />
    <text
       xml:space="preserve"
       style="font-style:normal;font-weight:normal;font-size:21.4175px;line-height:1.25;font-family:sans-serif;fill:#000000;fill-opacity:1;stroke:none;stroke-width:0.535439"
       x="217.97177"
       y="-474.20261"
       id="text10637-3"><tspan
         sodipodi:role="line"
         id="tspan10635-0"
         style="stroke-width:0.535439"
         x="217.97177"
         y="-474.20261">Good roots stack</tspan><tspan
         sodipodi:role="line"
         style="stroke-width:0.535439"
         x="217.97177"
         y="-447.43073"
         id="tspan12751-4">Version 2</tspan><tspan
         sodipodi:role="line"
         style="stroke-width:0.535439"
         x="217.97177"
         y="-420.65887"
         id="tspan16866" /></text>
    <rect
       style="fill:#ff2a2a;fill-opacity:1;stroke:#ff6600;stroke-width:0.225114"
       id="rect13424-7"
       width="140.38986"
       height="19.262308"
       x="146.26709"
       y="-173.80879"
       ry="5" />
    <rect
       style="fill:#ff2a2a;fill-opacity:1;stroke:#ff6600;stroke-width:0.350597"
       id="rect13424-7-6"
       width="118.78458"
       height="55.219841"
       x="253.20749"
       y="-271.05637"
       ry="14.333652" />
    <text
       xml:space="preserve"
       style="font-style:normal;font-weight:normal;font-size:10.5833px;line-height:1.25;font-family:sans-serif;fill:#000000;fill-opacity:1;stroke:none;stroke-width:0.264583"
       x="154.94348"
       y="-160.93878"
       id="text19478-6"><tspan
         sodipodi:role="line"
         id="tspan19476-3"
         style="stroke-width:0.264583"
         x="154.94348"
         y="-160.93878">express-authentication</tspan></text>
    <rect
       style="fill:#ff2a2a;stroke:#ff6600;stroke-width:0.193213"
       id="rect20628-1"
       width="115.12475"
       height="18.345354"
       x="325.52106"
       y="-172.67896"
       ry="5" />
    <text
       xml:space="preserve"
       style="font-style:normal;font-weight:normal;font-size:10.5833px;line-height:1.25;font-family:sans-serif;fill:#000000;fill-opacity:1;stroke:none;stroke-width:0.264583"
       x="334.17999"
       y="-160.51118"
       id="text26852-7"><tspan
         sodipodi:role="line"
         id="tspan26850-5"
         style="stroke-width:0.264583"
         x="334.17999"
         y="-160.51118">express-real-estate</tspan></text>
    <rect
       style="fill:#ff00ff;stroke:#ff6600;stroke-width:0.454825"
       id="rect28540-9"
       width="164.11488"
       height="72.814453"
       x="318.82397"
       y="-414.09625"
       ry="16.618464" />
    <text
       xml:space="preserve"
       style="font-style:normal;font-weight:normal;font-size:6.7169px;line-height:1.25;font-family:sans-serif;fill:#000000;fill-opacity:1;stroke:none;stroke-width:0.167923"
       x="372.39401"
       y="-382.53802"
       id="text33772-6"><tspan
         sodipodi:role="line"
         id="tspan33770-2"
         style="stroke-width:0.167923"
         x="372.39401"
         y="-382.53802">Characteristics:</tspan><tspan
         sodipodi:role="line"
         style="stroke-width:0.167923"
         x="372.39401"
         y="-374.14191"
         id="tspan53986">- Frontend</tspan><tspan
         sodipodi:role="line"
         style="stroke-width:0.167923"
         x="372.39401"
         y="-365.74576"
         id="tspan53988">- Next.js</tspan></text>
    <rect
       style="fill:#ff00ff;stroke:#ff6600;stroke-width:0.451896"
       id="rect41924-1"
       width="156.14812"
       height="71.870728"
       x="145.91214"
       y="-414.9451"
       ry="19.010448" />
    <text
       xml:space="preserve"
       style="font-style:normal;font-weight:normal;font-size:6.80185px;line-height:1.25;font-family:sans-serif;fill:#000000;fill-opacity:1;stroke:none;stroke-width:0.170046"
       x="267.94757"
       y="-239.37863"
       id="text58497-5"><tspan
         sodipodi:role="line"
         id="tspan58495-7"
         style="stroke-width:0.170046"
         x="267.94757"
         y="-239.37863">Features</tspan><tspan
         sodipodi:role="line"
         style="stroke-width:0.170046"
         x="267.94757"
         y="-230.87631"
         id="tspan58499-4">- Session manager</tspan><tspan
         sodipodi:role="line"
         style="stroke-width:0.170046"
         x="267.94757"
         y="-222.37401"
         id="tspan59095-1">- Real estate manager</tspan></text>
    <path
       style="fill:#ff0066;stroke:#aa0000;stroke-width:0.7;stroke-miterlimit:4;stroke-dasharray:none"
       id="path60970-8"
       d="m 231.74087,-181.01799 c 0.29081,-0.88559 0.61186,-1.7615 0.93195,-2.63692 0.71274,-1.94914 1.44497,-3.89108 2.15751,-5.84031 0.89553,-2.42514 1.72947,-4.87225 2.56039,-7.32006 0.38031,-1.09528 0.73774,-2.19818 1.09261,-3.30188 0,0 -2.60332,1.22656 -2.60332,1.22656 v 0 c -0.34931,1.09959 -0.70192,2.19814 -1.07724,3.28922 -0.82703,2.44839 -1.66205,4.89445 -2.56777,7.31514 -0.7269,1.95756 -1.47105,3.90861 -2.20715,5.86272 -0.33494,0.89021 -0.67057,1.78031 -0.99189,2.67555 0,0 2.70491,-1.27002 2.70491,-1.27002 z" />
    <path
       style="fill:#ff0066;stroke:#aa0000;stroke-width:0.7;stroke-miterlimit:4;stroke-dasharray:none"
       id="path60972-5"
       d="m 228.67238,-196.77169 c 0.7349,-0.69894 1.43643,-1.43177 2.13434,-2.16731 1.44618,-1.51866 2.90511,-3.02523 4.36641,-4.52935 1.69267,-1.75625 3.34975,-3.54613 5.01822,-5.32521 1.16454,-1.217 2.27261,-2.49052 3.51253,-3.63273 0.88191,-0.59667 2.64576,-1.88157 -1.45401,0.81952 -0.074,0.0487 0.17418,-0.0425 0.26271,-0.0398 0.22286,0.007 0.27821,0.0879 0.45375,0.21253 0.66388,0.78868 0.89871,1.835 1.16274,2.80753 0.39866,1.5911 0.76743,3.18944 1.15999,4.78203 0.40891,1.63678 0.95923,3.23121 1.52715,4.81797 0.22573,0.87863 0.80138,1.69581 0.85885,2.61513 -0.0676,0.15222 -0.009,0.11041 -0.17481,0.12578 0.80527,-0.48118 1.62262,-0.9427 2.41581,-1.44353 0.051,-0.0322 -0.11795,0.0299 -0.17824,0.0307 -0.17703,0.003 -0.37118,-0.0533 -0.53971,-0.091 -0.79736,-0.23377 -1.5963,-0.45681 -2.40703,-0.63958 -0.75703,-0.16865 -1.5225,-0.29484 -2.29628,-0.34932 -0.0976,-0.002 -0.19519,-0.004 -0.29278,-0.006 0,0 -2.3997,1.74594 -2.3997,1.74594 v 0 c 0.0952,-0.003 0.19046,-0.007 0.28569,-0.01 0.76814,0.0227 1.52785,0.14052 2.27883,0.30118 0.80672,0.17402 1.60426,0.38184 2.38888,0.63895 1.37516,0.40392 3.44131,0.36014 3.55285,-1.68612 -0.16188,-0.92571 -0.66924,-1.75228 -0.94221,-2.6454 -0.57536,-1.57262 -1.1231,-3.15644 -1.52422,-4.78423 -0.39007,-1.59714 -0.75473,-3.20026 -1.14442,-4.79749 -0.27504,-1.03974 -0.531,-2.13442 -1.22043,-2.98914 -1.50344,-1.32584 -3.15859,0.72138 -4.48564,1.6982 -1.20107,1.15989 -2.30345,2.41541 -3.45119,3.62708 -1.66044,1.78158 -3.31684,3.56712 -5.01163,5.31626 -1.47461,1.51349 -2.94813,3.02812 -4.4129,4.55114 -0.71801,0.74249 -1.43802,1.48484 -2.20608,2.17621 0,0 2.76253,-1.13024 2.76253,-1.13024 z" />
    <path
       style="fill:#ff0066;stroke:#aa0000;stroke-width:0.7;stroke-miterlimit:4;stroke-dasharray:none"
       id="path60978-9"
       d="m 264.73761,-207.99185 c -0.0439,1.01408 -0.23299,2.01187 -0.43492,3.00396 -0.43356,1.96369 -1.05483,3.87997 -1.65465,5.79758 -0.705,2.24975 -1.41384,4.49823 -2.10238,6.75309 -0.38966,1.25908 -0.76044,2.52383 -1.12485,3.7904 0,0 2.62056,-1.24494 2.62056,-1.24494 v 0 c 0.35534,-1.26152 0.71787,-2.52103 1.10245,-3.77402 0.68365,-2.255 1.3895,-4.50304 2.10061,-6.74952 0.60828,-1.93319 1.24205,-3.86354 1.68302,-5.84354 0.21123,-1.01547 0.39976,-2.03621 0.47693,-3.07212 0,0 -2.66677,1.33911 -2.66677,1.33911 z" />
    <path
       style="fill:#ff0066;stroke:#aa0000;stroke-width:0.7;stroke-miterlimit:4;stroke-dasharray:none"
       id="path60980-7"
       d="m 251.05041,-193.22538 c 0.14976,0.75001 0.25978,1.50687 0.38886,2.26051 0.25243,1.45728 0.49677,2.91583 0.77127,4.36915 0.33407,1.81974 0.80313,3.60897 1.3723,5.36823 0.48462,1.52175 1.16726,2.96038 1.99755,4.32092 0.53722,0.85163 1.15494,1.64843 1.83773,2.38751 0.31294,0.32253 0.65466,0.62304 1.10036,0.72738 1.31623,0.0321 2.39977,-1.03249 3.24099,-1.96618 0.44022,-0.53945 0.98075,-0.98412 1.5146,-1.42649 1.10636,-0.88804 2.25705,-1.71918 3.4186,-2.53301 1.46011,-1.00086 2.93595,-1.97837 4.3956,-2.97993 0.8797,-0.66335 1.94045,-1.20406 2.53869,-2.16243 0.30164,-0.82339 -0.58474,-1.16164 -1.19618,-1.4239 -1.56003,-0.55937 -3.16365,-0.9891 -4.75765,-1.43951 -1.80465,-0.50568 -3.61317,-0.99765 -5.41571,-1.51081 0,0 -2.40088,1.6456 -2.40088,1.6456 v 0 c 1.81,0.50411 3.62678,0.98388 5.43429,1.49712 1.572,0.45041 3.15078,0.88782 4.69001,1.44231 0.45589,0.18885 1.29443,0.34712 0.92822,0.97113 -0.67719,0.85741 -1.65924,1.40217 -2.52591,2.04303 -1.46,1.00076 -2.93674,1.97675 -4.39322,2.98264 -1.17095,0.82629 -2.33574,1.66405 -3.44627,2.57084 -0.54154,0.45955 -1.07532,0.92914 -1.52965,1.47794 -0.0775,0.0866 -0.15466,0.17976 -0.24378,0.25565 -0.0347,0.0295 -0.15002,0.10317 -0.1104,0.0807 3.70579,-2.10564 3.10497,-1.90551 2.27872,-1.27297 -0.39318,0.10199 -0.72527,-0.29051 -0.99291,-0.51802 -0.68656,-0.71075 -1.30161,-1.48654 -1.83692,-2.31792 -0.82932,-1.33361 -1.50791,-2.74788 -1.98694,-4.24689 -0.56517,-1.74848 -1.02692,-3.52793 -1.3487,-5.33829 -0.26484,-1.45677 -0.50136,-2.91836 -0.73761,-4.38001 -0.11805,-0.75871 -0.22973,-1.51852 -0.34331,-2.27786 0,0 -2.64175,1.3936 -2.64175,1.3936 z" />
    <path
       style="fill:#ff0066;stroke:#aa0000;stroke-width:0.7;stroke-miterlimit:4;stroke-dasharray:none"
       id="path60982-5"
       d="m 351.76501,-177.64715 c -0.42104,-0.78897 -0.85173,-1.57269 -1.28439,-2.35538 -0.8354,-1.4883 -1.56196,-3.0323 -2.2491,-4.59337 -0.8428,-1.97754 -1.60288,-3.98868 -2.35502,-6.00199 -0.67245,-1.87181 -1.44812,-3.70259 -2.24571,-5.52362 -0.10932,-0.2419 -0.21865,-0.48381 -0.32798,-0.72572 0,0 -2.53473,1.4317 -2.53473,1.4317 v 0 c 0.11103,0.23959 0.22207,0.47917 0.3331,0.71875 0.8101,1.80841 1.58908,3.63048 2.25939,5.49631 0.75453,2.01845 1.51795,4.03424 2.35325,6.02096 0.68278,1.57303 1.40416,3.12944 2.22693,4.63508 0.42203,0.78522 0.84634,1.56969 1.23003,2.37464 0,0 2.59423,-1.47736 2.59423,-1.47736 z" />
    <path
       style="fill:#ff0066;stroke:#aa0000;stroke-width:0.7;stroke-miterlimit:4;stroke-dasharray:none"
       id="path60984-3"
       d="m 336.56313,-193.78316 c 0.0249,-0.87649 0.0374,-1.75323 0.0488,-2.62997 0.008,-1.5033 -0.0482,-3.00564 -0.10823,-4.50741 -0.0567,-1.54931 -0.18052,-3.0937 -0.33525,-4.63584 -0.10952,-1.04317 -0.25984,-2.08133 -0.38995,-3.12192 -0.004,-0.0757 -0.0388,-0.32151 0.0202,-0.41514 0.0181,-0.0288 0.12229,-0.0591 0.0933,-0.0413 -0.8121,0.49817 -1.63963,0.97137 -2.4434,1.48289 -0.0361,0.023 0.0865,-0.0197 0.12803,-0.009 0.0736,0.0183 0.1384,0.062 0.2076,0.093 0.90278,0.60721 1.8498,1.13132 2.82734,1.60713 1.8456,0.86279 3.83439,1.31307 5.82166,1.70745 2.39353,0.44378 4.82403,0.61245 7.25245,0.71313 1.64855,0.0637 3.29874,0.0196 4.94757,0.0555 0.22111,0.0214 1.44338,0.002 1.08381,0.49261 -0.62211,0.69381 -1.38813,1.23366 -2.14013,1.77499 -1.35729,0.96463 -2.76548,1.85433 -4.17948,2.73271 -0.9445,0.5862 -1.90294,1.14926 -2.85954,1.71532 0,0 2.71973,-1.0476 2.71973,-1.0476 v 0 c 0.95193,-0.56531 1.90387,-1.1307 2.84373,-1.71599 1.42053,-0.8864 2.83433,-1.78586 4.19594,-2.76134 0.76431,-0.5591 1.65804,-1.11908 2.10749,-1.97839 0.0537,-0.81823 -0.72636,-0.9029 -1.39302,-0.93279 -1.66518,-0.0338 -3.33163,0.0422 -4.99694,-0.0138 -2.41971,-0.083 -4.84184,-0.23964 -7.22739,-0.67562 -1.95919,-0.38503 -3.92151,-0.82173 -5.74089,-1.67165 -0.9653,-0.47249 -1.90867,-0.98482 -2.77407,-1.62673 -0.11109,-0.0698 -0.42117,-0.2696 -0.4411,-0.25981 -2.01103,0.98736 -2.84941,0.69406 -2.67272,2.15554 0.15711,1.02886 0.30698,2.05887 0.42116,3.09357 0.15981,1.53454 0.28247,3.07196 0.33708,4.61428 0.0574,1.5003 0.10559,3.00152 0.0799,4.50315 -0.0202,0.88116 -0.0368,1.76323 -0.1005,2.64256 0,0 2.66679,-1.33911 2.66679,-1.33911 z" />
    <path
       style="fill:#ff0066;stroke:#aa0000;stroke-width:0.7;stroke-miterlimit:4;stroke-dasharray:none"
       id="path60988-8"
       d="m 370.0367,-203.40808 c 0.36874,0.78671 0.71517,1.58368 1.07595,2.37409 0.76397,1.665 1.53265,3.32756 2.32768,4.97799 0.94976,1.99976 1.99388,3.95223 3.04533,5.89973 0.61258,1.12917 1.24625,2.24658 1.89283,3.35654 0,0 2.51224,-1.45321 2.51224,-1.45321 v 0 c -0.65454,-1.10131 -1.29297,-2.21198 -1.90736,-3.33629 -1.05389,-1.94083 -2.09859,-3.88781 -3.03722,-5.88781 -0.78613,-1.6534 -1.54378,-3.3197 -2.28341,-4.99443 -0.34997,-0.79872 -0.69098,-1.60118 -1.02603,-2.40627 0,0 -2.60001,1.46966 -2.60001,1.46966 z" />
    <path
       style="fill:#ff0066;stroke:#aa0000;stroke-width:0.7;stroke-miterlimit:4;stroke-dasharray:none"
       id="path60990-8"
       d="m 372.9719,-181.80811 c 0.7903,-0.4833 1.58449,-0.95966 2.36925,-1.45201 1.57266,-0.96287 3.14672,-1.92322 4.7053,-2.90879 1.62377,-1.02981 3.23365,-2.08092 4.84449,-3.13072 0.98086,-0.74082 5.28815,-3.2231 0.59483,-0.4699 0.607,-0.31219 1.18331,-0.40737 1.77804,-0.0486 0.59424,0.49502 0.86078,1.2168 1.05837,1.94056 0.23209,1.05219 0.12997,2.12645 0.0209,3.1862 -0.12773,1.14149 -0.34338,2.27055 -0.59267,3.39101 -0.18358,0.79468 -0.35301,1.59228 -0.54517,2.38492 -0.12849,0.60521 -0.30892,1.19612 -0.52471,1.77538 -0.2175,0.58488 -0.48575,1.14821 -0.76145,1.70731 -0.24243,0.50821 -0.49261,1.01263 -0.76106,1.50763 -0.60087,1.05716 -2.18945,1.57611 1.9955,-0.8917 -0.58565,-0.0212 -1.17428,-0.49872 -1.67416,-0.77846 -1.3074,-0.75309 -2.66149,-1.41696 -4.03381,-2.04188 -0.96546,-0.43296 -1.9463,-0.82958 -2.93043,-1.21766 0,0 -2.42204,1.62579 -2.42204,1.62579 v 0 c 0.98495,0.3791 1.96593,0.76858 2.9299,1.19892 1.36193,0.61597 2.70616,1.27157 3.99098,2.03813 0.57768,0.33402 1.1382,0.71332 1.75536,0.97056 1.92736,-1.05621 2.42428,-0.80266 3.10042,-2.12322 0.25756,-0.50035 0.50681,-1.00479 0.7492,-1.51268 0.27461,-0.5679 0.53605,-1.14267 0.74908,-1.737 0.20582,-0.59071 0.37792,-1.19153 0.50715,-1.80396 0.18439,-0.79185 0.34669,-1.58857 0.52466,-2.38187 0.23631,-1.13043 0.44755,-2.26717 0.56954,-3.41642 0.10746,-1.09575 0.19816,-2.20621 -0.0565,-3.29043 -0.22235,-0.79236 -0.52685,-1.56467 -1.15264,-2.12971 -0.62811,-0.4531 -1.254,-0.52587 -1.97291,-0.19702 -1.89964,1.07444 -3.81663,2.11173 -5.6029,3.37017 -1.60268,1.05 -3.20914,2.09401 -4.82787,3.1192 -1.57107,0.98755 -3.15678,1.95115 -4.73929,2.9202 -0.80601,0.49789 -1.62043,0.98165 -2.42968,1.4742 0,0 2.78431,-1.07818 2.78431,-1.07818 z" />
    <text
       xml:space="preserve"
       style="font-style:normal;font-weight:normal;font-size:12.0918px;line-height:1.25;font-family:sans-serif;fill:#000000;fill-opacity:1;stroke:none;stroke-width:0.302296"
       x="165.61307"
       y="-396.00095"
       id="text72262-6"><tspan
         sodipodi:role="line"
         id="tspan72260-4"
         style="stroke-width:0.302296"
         x="165.61307"
         y="-396.00095">good-roots-pug-view</tspan></text>
    <rect
       style="fill:#ff2a2a;fill-opacity:1;stroke:#ff6600;stroke-width:0.781758;stroke-miterlimit:4;stroke-dasharray:none"
       id="rect86837-3"
       width="148.54996"
       height="33.167622"
       x="232.68118"
       y="-120.73882"
       ry="5.746254" />
    <text
       xml:space="preserve"
       style="font-style:normal;font-weight:normal;font-size:10.5833px;line-height:1.25;font-family:sans-serif;fill:#000000;fill-opacity:1;stroke:none;stroke-width:0.264583"
       x="246.30045"
       y="-109.37785"
       id="text116209-3"><tspan
         sodipodi:role="line"
         id="tspan116207-3"
         style="stroke-width:0.264583"
         x="246.30045"
         y="-109.37785">backdoor-server-access</tspan></text>
    <text
       xml:space="preserve"
       style="font-style:normal;font-weight:normal;font-size:10.5833px;line-height:1.25;font-family:sans-serif;fill:#000000;fill-opacity:1;stroke:none;stroke-width:0.264583"
       x="246.72278"
       y="-94.272263"
       id="text122945-8"><tspan
         sodipodi:role="line"
         id="tspan122943-6"
         style="stroke-width:0.264583"
         x="246.72278"
         y="-94.272263">For testing mainly</tspan></text>
    <path
       style="fill:#ff0066;fill-opacity:1;stroke:#aa0000;stroke-width:0.7;stroke-miterlimit:4;stroke-dasharray:none"
       id="path125850-0"
       d="m 253.84044,-124.40926 c -0.73941,-0.39214 -1.50138,-0.74002 -2.26099,-1.09077 -1.0407,-0.45792 -2.0648,-0.95031 -3.06154,-1.49728 -0.97708,-0.51573 -1.78333,-1.24333 -2.48907,-2.08272 -0.82613,-1.04982 -1.34088,-2.2868 -1.79237,-3.53195 -0.52657,-1.52454 -0.88847,-3.09831 -1.21194,-4.67627 -0.25733,-1.36905 -0.48456,-2.74347 -0.73394,-4.114 0,0 -2.58844,1.37931 -2.58844,1.37931 v 0 c 0.25924,1.3683 0.493,2.7412 0.75682,4.1086 0.33265,1.59005 0.69995,3.17655 1.22722,4.71518 0.46002,1.27873 0.98562,2.54765 1.82636,3.62979 0.7198,0.87244 1.54003,1.63703 2.54409,2.17721 0.99973,0.55467 2.02775,1.05328 3.0744,1.51352 0.74353,0.34591 1.48874,0.69217 2.20354,1.09511 0,0 2.50586,-1.62573 2.50586,-1.62573 z" />
    <path
       style="fill:#ff0066;fill-opacity:1;stroke:#aa0000;stroke-width:0.7;stroke-miterlimit:4;stroke-dasharray:none"
       id="path125852-4"
       d="m 234.61651,-138.05555 c -0.01,-0.76055 0.0439,-1.52057 0.0771,-2.28015 0.0787,-1.30174 0.13824,-2.60441 0.18667,-3.90759 0.0647,-1.45811 0.0552,-2.91736 -0.0115,-4.37496 -0.0551,-1.24684 -0.15885,-2.49058 -0.25294,-3.73486 -0.0795,-0.86734 -0.16373,-1.73427 -0.24865,-2.6011 0.0141,-0.2956 -0.21057,-0.85575 0.0684,-1.08036 1.01787,-0.17745 -0.0619,-2.2e-4 -2.32308,1.42054 -0.0417,0.0262 0.0979,-0.0142 0.14711,-0.0125 0.21397,0.007 0.4144,0.10286 0.60895,0.18053 0.78058,0.36359 1.53514,0.78023 2.29852,1.17806 1.17753,0.61137 2.36248,1.20818 3.54196,1.81582 1.36236,0.70365 2.69316,1.46581 4.00182,2.26431 1.26501,0.77495 2.46774,1.64348 3.62703,2.56758 0.87041,0.69852 1.66068,1.4872 2.47388,2.24936 0.37171,0.36083 0.78484,0.689 1.1057,1.09862 0.0115,0.0294 0.0647,0.0964 -0.002,0.11692 -1.35435,0.41672 3.47944,-1.7719 1.83075,-1.27809 -1.0868,0.26962 -2.13046,0.67758 -3.17447,1.07623 -1.50675,0.57452 -3.00775,1.16336 -4.5258,1.70756 -0.2282,0.0793 -0.4564,0.15849 -0.6846,0.23773 0,0 -2.30265,1.79329 -2.30265,1.79329 v 0 c 0.23019,-0.0796 0.46037,-0.1592 0.69056,-0.2388 1.51835,-0.54094 3.01939,-1.12675 4.52582,-1.69977 1.02637,-0.39092 2.04856,-0.80635 3.11713,-1.07028 1.29108,-0.30304 0.42708,-0.0734 3.06049,-1.5816 0.21643,-0.12395 0.119,-0.43116 0.0259,-0.59156 -0.33479,-0.42165 -0.76451,-0.75736 -1.1576,-1.12178 -0.83183,-0.7556 -1.62951,-1.55003 -2.50751,-2.25364 -1.17049,-0.93028 -2.38372,-1.80562 -3.65706,-2.59094 -1.31039,-0.8051 -2.64221,-1.57546 -4.00611,-2.28682 -1.17497,-0.60812 -2.35448,-1.20749 -3.52448,-1.82504 -0.76293,-0.40272 -1.51702,-0.82207 -2.28542,-1.21441 -1.25322,-0.5732 -2.80439,-0.65248 -3.62925,1.28524 -0.09,0.40591 -0.0149,0.81829 0.0308,1.22615 0.0961,0.86032 0.1848,1.7215 0.26608,2.58333 0.10053,1.23826 0.20892,2.47611 0.26534,3.71743 0.0639,1.45053 0.0673,2.90258 5e-5,4.35332 -0.0535,1.30549 -0.11977,2.61031 -0.20626,3.91407 -0.0425,0.77095 -0.0971,1.54162 -0.11114,2.31381 0,0 2.66059,-1.35564 2.66059,-1.35564 z" />
    <path
       style="fill:#ff0066;fill-opacity:1;stroke:#aa0000;stroke-width:0.7;stroke-miterlimit:4;stroke-dasharray:none"
       id="path125854-8"
       d="m 256.78158,-148.38235 c 0.13998,0.87856 0.24323,1.76218 0.37781,2.64159 0.21131,1.42784 0.50157,2.84079 0.86492,4.23725 0.40555,1.55894 1.03986,3.03329 1.81686,4.43938 0.80716,1.43322 1.97929,2.55952 3.24462,3.58291 0.84785,0.67842 1.79615,1.20865 2.7425,1.73326 0,0 2.43929,-1.59168 2.43929,-1.59168 v 0 c -0.93805,-0.50898 -1.87804,-1.02413 -2.71859,-1.68792 -1.24247,-0.99293 -2.39343,-2.0872 -3.1838,-3.48762 -0.76627,-1.38442 -1.38713,-2.83857 -1.77922,-4.37602 -0.35469,-1.39028 -0.63504,-2.79692 -0.83421,-4.21832 -0.12388,-0.88434 -0.22668,-1.77139 -0.32745,-2.65861 0,0 -2.64273,1.38578 -2.64273,1.38578 z" />
    <path
       style="fill:#ff0066;fill-opacity:1;stroke:#aa0000;stroke-width:0.7;stroke-miterlimit:4;stroke-dasharray:none"
       id="path125860-8"
       d="m 260.48718,-124.67565 c 0.67674,-0.54059 1.317,-1.12395 1.95527,-1.70886 1.32571,-1.24875 2.62958,-2.52047 3.94856,-3.77645 1.51957,-1.42251 3.08568,-2.79321 4.70408,-4.10194 1.20749,-0.96902 2.45477,-1.8873 3.74813,-2.7382 0.78687,-0.49385 2.20655,-1.37756 -1.60437,0.91301 -0.12721,0.0765 0.26209,-0.13991 0.39767,-0.20029 0.35894,-0.15985 0.69172,-0.22699 1.07935,-0.25984 0.82863,0.0199 1.43808,0.51678 1.97821,1.09391 0.72759,0.90879 1.14258,2.00794 1.55323,3.08402 0.45298,1.21868 0.81389,2.46912 1.17971,3.71605 0.23004,0.90416 0.61084,1.77446 0.75531,2.6987 -0.0167,0.0723 -0.0111,0.15377 -0.0501,0.21688 -0.0352,0.0569 -0.10627,0.0812 -0.15941,0.12181 0.76141,-0.46754 1.54017,-0.90794 2.28422,-1.40266 0.095,-0.0632 -0.21484,0.0803 -0.327,0.10133 -0.30808,0.0578 -0.68402,0.0471 -0.99097,0.0509 -1.46898,-0.0249 -2.93038,-0.18346 -4.38861,-0.3501 -1.63269,-0.19894 -3.26265,-0.41894 -4.89637,-0.60941 -1.32187,-0.15537 -2.64539,-0.29208 -3.97609,-0.3342 -0.74842,-0.0233 -1.49253,0.0295 -2.22703,0.17108 0,0 -2.35588,1.79054 -2.35588,1.79054 v 0 c 0.72271,-0.17775 1.45803,-0.25524 2.2035,-0.24127 1.33218,0.0196 2.65702,0.14682 3.98019,0.29853 1.63542,0.18423 3.26685,0.4001 4.89959,0.60637 1.45642,0.17375 2.91505,0.33962 4.38179,0.39444 1.53539,0.0393 4.21466,-0.191 4.23738,-2.20692 -0.19188,-0.92337 -0.5492,-1.80318 -0.79721,-2.712 -0.37425,-1.25153 -0.7422,-2.50669 -1.19642,-3.73213 -0.42204,-1.11205 -0.8491,-2.24507 -1.5898,-3.19118 -0.57453,-0.63968 -1.2251,-1.19431 -2.10925,-1.31182 -1.83936,-0.0337 -3.51881,1.50239 -4.99165,2.36241 -1.27364,0.86075 -2.50685,1.77938 -3.7,2.74889 -1.6098,1.31905 -3.17216,2.69415 -4.68867,4.11972 -1.32939,1.26312 -2.64158,2.54463 -3.99095,3.78637 -0.6558,0.58873 -1.3117,1.18129 -2.02388,1.70212 0,0 2.77747,-1.09985 2.77747,-1.09985 z" />
    <path
       style="fill:#ff0066;fill-opacity:1;stroke:#aa0000;stroke-width:0.7;stroke-miterlimit:4;stroke-dasharray:none"
       id="path125862-8"
       d="m 341.43605,-125.03379 c -0.10438,-0.79898 -0.20824,-1.59789 -0.29942,-2.3985 -0.21413,-1.4537 -0.0677,-2.90271 0.19562,-4.33699 0.41059,-1.9108 1.17028,-3.71226 2.00798,-5.46872 0.88124,-1.74252 1.8542,-3.43662 2.84705,-5.11737 0.13958,-0.23679 0.27916,-0.47359 0.41874,-0.71038 0,0 -2.65741,1.18104 -2.65741,1.18104 v 0 c -0.13752,0.23585 -0.27503,0.4717 -0.41254,0.70755 -0.98278,1.68738 -1.95209,3.38455 -2.82133,5.13391 -0.83623,1.78206 -1.59223,3.61044 -1.99331,5.54627 -0.25777,1.46523 -0.39522,2.9433 -0.18709,4.42658 0.0846,0.80365 0.18933,1.60576 0.2501,2.41157 0,0 2.65161,-1.37496 2.65161,-1.37496 z" />
    <path
       style="fill:#ff0066;fill-opacity:1;stroke:#aa0000;stroke-width:0.7;stroke-miterlimit:4;stroke-dasharray:none"
       id="path125864-9"
       d="m 338.26874,-140.71524 c 0.69016,-0.57435 1.38835,-1.13896 2.08591,-1.70425 1.23412,-0.99768 2.53183,-1.91185 3.82929,-2.82418 1.39565,-0.97493 2.81142,-1.92046 4.24644,-2.83635 0.28808,-0.17854 3.71925,-2.29674 -1.27462,0.71565 -0.17473,0.1054 0.35816,-0.19608 0.54217,-0.28429 0.45716,-0.21916 0.88237,-0.33849 1.38062,-0.40867 0.90584,-0.0514 1.43921,0.49095 1.90081,1.19661 0.55857,0.97943 0.77625,2.08824 0.96064,3.18669 0.17391,1.15456 0.26266,2.32125 0.3143,3.4872 -0.0331,0.61466 0.18453,1.52053 -0.40701,1.92041 4.12204,-2.47173 2.77743,-1.21207 1.63856,-1.34841 -0.53894,-0.0645 -1.05642,-0.25269 -1.56959,-0.41819 -1.31603,-0.45195 -2.61618,-0.94817 -3.92956,-1.40766 -0.78098,-0.26427 -0.39851,-0.13363 -1.14748,-0.39166 0,0 -2.42966,1.64581 -2.42966,1.64581 v 0 c 0.75476,0.25593 0.36993,0.12731 1.15463,0.3855 1.31644,0.45037 2.61755,0.9429 3.92672,1.4137 2.65799,0.91307 1.98721,0.80098 5.09971,-1.02578 0.39758,-0.63019 0.28673,-1.40868 0.27835,-2.12274 -0.0674,-1.17427 -0.15947,-2.34936 -0.34061,-3.51218 -0.19428,-1.13781 -0.42927,-2.28289 -1.00376,-3.2993 -0.49813,-0.77899 -1.0888,-1.42959 -2.07637,-1.46709 -0.73919,0.0421 -1.37196,0.24271 -2.02011,0.61006 -2.62967,1.49041 -2.21754,1.24187 -3.71088,2.18053 -1.42832,0.92245 -2.84203,1.86723 -4.23349,2.84456 -1.30508,0.91962 -2.60658,1.84619 -3.8473,2.85219 -0.71309,0.57476 -1.42727,1.14827 -2.13413,1.73069 0,0 2.76642,-1.11885 2.76642,-1.11885 z" />
    <path
       style="fill:#ff0066;fill-opacity:1;stroke:#aa0000;stroke-width:0.7;stroke-miterlimit:4;stroke-dasharray:none"
       id="path125872-7"
       d="m 377.86181,-152.12556 c -0.65453,-0.0761 -1.28127,0.0406 -1.90261,0.23802 -2.07327,0.83845 -3.89848,2.09737 -5.43772,3.69325 -1.28513,1.41496 -2.41257,2.9604 -3.48876,4.53694 -1.02278,1.50801 -1.89357,3.1083 -2.69094,4.74432 -0.49368,0.97371 -0.87418,1.99262 -1.16347,3.04339 0,0 2.65492,-1.26289 2.65492,-1.26289 v 0 c 0.29179,-1.02935 0.67718,-2.02532 1.15837,-2.98227 0.79465,-1.62168 1.66609,-3.20544 2.68861,-4.6966 1.08395,-1.56953 2.21915,-3.10988 3.53086,-4.49925 0.45209,-0.44898 0.61464,-0.6308 1.09568,-1.0322 0.16622,-0.1387 0.70773,-0.49272 0.51281,-0.39853 -3.99181,1.92879 -2.04213,1.2023 -1.18936,0.66981 0.57892,-0.22596 1.17442,-0.39496 1.8027,-0.31561 0,0 2.42891,-1.73838 2.42891,-1.73838 z" />
    <path
       style="fill:#ff0066;fill-opacity:1;stroke:#aa0000;stroke-width:0.7;stroke-miterlimit:4;stroke-dasharray:none"
       id="path125874-7"
       d="m 356.44398,-137.52727 c 0.67681,0.31059 1.37483,0.5704 2.07058,0.83452 1.27349,0.47327 2.57226,0.87335 3.87468,1.25809 1.49985,0.44125 3.00118,0.87744 4.50204,1.31524 1.05664,0.31901 2.13306,0.61066 3.10749,1.13977 0.7383,0.51843 0.52229,0.93287 0.0548,1.56181 -0.12205,0.12978 -0.23718,0.26644 -0.36615,0.38936 -0.546,0.52039 -1.17617,0.95928 -1.81666,1.35358 -0.27476,0.16915 -1.10991,0.65834 -0.83721,0.48586 0.5009,-0.31679 1.01471,-0.61267 1.52207,-0.919 -2.23996,1.13231 -4.58951,2.02649 -6.93194,2.91986 -1.90146,0.71787 -3.80928,1.41875 -5.72393,2.10063 -0.87257,0.27035 -1.75759,0.68945 -2.69014,0.65693 -0.5434,-0.13813 -0.3279,-0.81219 -0.25794,-1.21689 0.2584,-1.06315 0.61565,-2.09868 0.92789,-3.14656 0.32395,-1.10646 0.57602,-2.23166 0.81039,-3.35987 0.15695,-0.77046 0.35872,-1.52974 0.5734,-2.2857 0.14242,-0.52142 0.31038,-1.0354 0.48609,-1.54639 0.0234,-0.0716 0.0467,-0.14327 0.0701,-0.21491 0,0 -2.69219,1.26567 -2.69219,1.26567 v 0 c -0.0234,0.0707 -0.0469,0.14133 -0.0703,0.212 -0.17185,0.51393 -0.32793,1.03322 -0.46941,1.55635 -0.2088,0.75869 -0.39432,1.52321 -0.54668,2.29542 -0.23005,1.11958 -0.48151,2.23549 -0.8104,3.33087 -0.32363,1.06058 -0.69317,2.11034 -0.93371,3.19399 -0.0883,0.61553 -0.17469,1.324 0.49065,1.6342 0.96338,0.17492 1.91641,-0.31094 2.81735,-0.5842 1.9291,-0.69247 3.85077,-1.40536 5.76869,-2.12817 2.34003,-0.88959 4.68662,-1.77814 6.9374,-2.87915 2.05521,-1.15586 4.84633,-2.39143 6.44393,-4.29805 0.47294,-0.81097 0.52192,-1.38728 -0.28218,-1.99038 -0.98869,-0.55806 -2.09043,-0.85467 -3.17353,-1.17495 -1.50339,-0.43044 -3.00509,-0.86699 -4.50438,-1.31152 -1.2908,-0.38161 -2.5768,-0.78194 -3.83748,-1.25517 -0.68058,-0.26473 -1.36884,-0.51625 -2.02316,-0.84238 0,0 -2.49008,1.64914 -2.49008,1.64914 z" />
    <text
       xml:space="preserve"
       style="font-style:normal;font-weight:normal;font-size:12.0747px;line-height:1.25;font-family:sans-serif;fill:#000000;fill-opacity:1;stroke:none;stroke-width:0.301869"
       x="282.06137"
       y="-255.10518"
       id="text24098"><tspan
         sodipodi:role="line"
         id="tspan24096"
         style="stroke-width:0.301869"
         x="282.06137"
         y="-255.10518">good-roots</tspan></text>
    <circle
       id="path27803"
       style="fill:#00ccff;stroke:#ff6600;stroke-width:0.264583"
       cx="243.14893"
       cy="-352.5249"
       r="0.066287264" />
    <circle
       id="path27805"
       style="fill:#00ccff;stroke:#ff6600;stroke-width:0.264583"
       cx="243.14893"
       cy="-352.5249"
       r="0.066287264" />
    <circle
       id="path27807"
       style="fill:#00ccff;stroke:#ff6600;stroke-width:0.264583"
       cx="246.13486"
       cy="-354.31854"
       r="0.066287264" />
    <circle
       id="path27809"
       style="fill:#00ccff;stroke:#ff6600;stroke-width:0.264583"
       cx="246.13486"
       cy="-354.31854"
       r="0.066287264" />
    <path
       style="fill:#ff0066;fill-opacity:1;stroke:#aa0000;stroke-width:0.264583;stroke-opacity:1"
       id="path44028"
       d="m 244.65848,-285.12055 c -2.84176,-0.77265 -5.62713,-1.7291 -8.39626,-2.72673 -2.29275,-0.8338 -4.57658,-1.7424 -6.68462,-2.98379 -1.36633,-0.80463 -1.56678,-1.01542 -2.82712,-1.97313 -3.19712,-2.70105 -5.34477,-6.32997 -7.35039,-9.94444 -2.187,-3.98582 -3.58244,-8.30081 -4.59087,-12.71381 -0.63323,-3.08487 -0.90225,-6.22213 -1.06839,-9.36126 0,0 -3.32716,1.72126 -3.32716,1.72126 v 0 c 0.22286,3.14496 0.50787,6.29086 1.1633,9.3808 1.04372,4.43561 2.48345,8.76776 4.67124,12.78458 2.01025,3.66455 4.14425,7.35917 7.34817,10.12361 0.46363,0.35699 0.91255,0.73393 1.39086,1.07098 2.49613,1.7589 5.34847,2.91858 8.1951,3.97277 2.72769,1.00081 5.47465,1.94333 8.22928,2.86652 0,0 3.24686,-2.21736 3.24686,-2.21736 z" />
    <path
       style="fill:#ff0066;fill-opacity:1;stroke:#aa0000;stroke-width:0.264583;stroke-opacity:1"
       id="path44030"
       d="m 207.646,-317.23618 c 0.40068,-2.07016 0.90117,-4.11858 1.46113,-6.15088 0.75626,-2.63683 1.73302,-5.20482 2.74545,-7.75223 0.61855,-1.4758 1.18211,-2.99389 2.09095,-4.32168 0.89226,-0.98171 3.37675,-2.31076 -2.69944,1.45933 -0.0532,0.033 0.12362,-0.0377 0.18558,-0.0289 0.21818,0.0312 0.3832,0.17427 0.55888,0.29019 0.96311,0.77583 1.57126,1.84984 2.14254,2.92364 0.78394,1.66145 1.53096,3.33933 2.31871,4.99937 0.74768,1.56863 1.58318,3.09724 2.24623,4.7047 0.25704,0.79873 0.65307,1.24359 0.023,1.92312 -0.51517,0.41765 -1.08111,0.7486 -1.53683,1.23597 -0.30417,0.36829 -0.65278,0.71811 -0.86659,1.14895 0,0 3.63122,-1.60982 3.63122,-1.60982 v 0 c 0.26982,-0.37004 0.55943,-0.72763 0.88916,-1.04644 0.50075,-0.43962 1.10678,-0.76608 1.50738,-1.31012 0.39537,-0.77225 0.0785,-1.49825 -0.24889,-2.25023 -0.7067,-1.59224 -1.55819,-3.11511 -2.30116,-4.69045 -0.78817,-1.66768 -1.5172,-3.36005 -2.28984,-5.03443 -0.5879,-1.13062 -1.22656,-2.24277 -2.18765,-3.10348 -0.1083,-0.0869 -0.74364,-0.66022 -0.93023,-0.57016 -2.06144,0.99507 -3.06623,1.1234 -4.03463,2.5401 -0.80706,1.37352 -1.36898,2.86761 -1.95749,4.34347 -0.98306,2.56133 -1.9463,5.13514 -2.70169,7.7745 -0.57727,2.07118 -1.08595,4.15914 -1.60528,6.24542 0,0 3.55944,-1.71997 3.55944,-1.71997 z" />
    <path
       style="fill:#ff0066;fill-opacity:1;stroke:#aa0000;stroke-width:0.264583;stroke-opacity:1"
       id="path44032"
       d="m 241.37945,-331.62013 c -2.35511,1.24355 -4.69863,2.10482 -5.62743,4.67655 -0.11586,0.32086 -0.19166,0.65482 -0.28749,0.98223 -0.58933,2.55111 -0.20328,5.10598 0.43177,7.60168 0.82217,2.87768 2.25735,5.50383 4.08318,7.86493 0.4386,0.56718 0.91382,1.10506 1.37073,1.6576 3.12267,3.52844 6.86491,6.40627 10.7261,9.07135 3.49832,2.39375 7.26631,4.33291 11.08128,6.16067 1.94384,0.93259 3.8984,1.84379 5.80792,2.84549 0,0 3.22165,-2.11632 3.22165,-2.11632 v 0 c -1.95744,-0.96796 -3.94954,-1.86197 -5.93175,-2.77769 -3.83296,-1.77797 -7.61039,-3.68844 -11.1116,-6.07012 -3.84291,-2.63022 -7.57319,-5.47104 -10.64717,-8.99935 -0.4471,-0.5486 -0.91298,-1.08241 -1.34128,-1.64579 -1.77811,-2.33895 -3.16532,-4.94256 -3.93928,-7.78486 -0.58753,-2.45292 -0.93805,-4.96379 -0.27495,-7.44621 0.30252,-0.87817 0.59235,-1.67489 1.22145,-2.38059 0.93773,-1.05191 3.89466,-2.39236 -1.87791,0.82015 0,0 3.09478,-2.45972 3.09478,-2.45972 z" />
    <path
       style="fill:#ff0066;fill-opacity:1;stroke:#aa0000;stroke-width:0.264583;stroke-opacity:1"
       id="path44038"
       d="m 269.7726,-287.55948 c 1.15398,-1.43715 2.57839,-2.61784 3.9569,-3.82907 2.1959,-1.83578 4.38763,-3.67366 6.51369,-5.59034 1.81309,-1.64477 3.50973,-3.41059 5.26791,-5.11274 1.08011,-1.07797 3.62934,-2.41879 -2.03348,0.9542 -0.0427,0.0254 0.0843,-0.0633 0.13393,-0.0654 0.1243,-0.005 0.0877,0.23396 0.11229,0.35591 0.16161,1.66486 0.10184,3.34249 0.0574,5.01172 -0.0781,2.40563 -0.35142,4.79818 -0.66645,7.18244 -0.21916,1.8213 -0.49512,3.63484 -0.74864,5.45145 -0.0574,0.42561 -0.0971,0.85396 -0.16561,1.2781 -0.009,0.0539 0,0.11627 -0.031,0.16083 -0.0145,0.0205 -0.0962,5.3e-4 -0.0744,-0.012 1.13919,-0.65648 2.29407,-1.2854 3.44112,-1.9281 -0.62802,-0.65081 -1.42793,-1.08857 -2.19821,-1.54502 -2.36675,-1.36625 -4.9099,-2.35302 -7.5102,-3.16747 -1.85203,-0.57857 -3.76791,-0.8547 -5.69709,-0.98956 -0.73387,-10e-4 -1.49386,-0.15288 -2.21869,0.0164 -1.31,0.70262 -3.29647,0.86204 -3.6672,2.33901 0,0 3.62825,-1.63329 3.62825,-1.63329 v 0 c 0.11465,-0.0988 0.05,-0.0573 0.19609,-0.12164 -1.0962,0.61926 -2.19239,1.23852 -3.28856,1.85778 0.68363,-0.33379 1.45235,-0.18414 2.19109,-0.19049 1.93472,0.0862 3.8608,0.31489 5.72715,0.85648 2.57558,0.76562 5.09135,1.71348 7.38838,3.13187 0.72038,0.45649 1.49416,0.88506 2.05923,1.53863 4.18552,-2.07775 3.42471,-0.64147 3.71543,-3.3166 0.21352,-1.80591 0.46268,-3.60754 0.6731,-5.41388 0.30507,-2.39877 0.57346,-4.80453 0.66292,-7.22257 0.0602,-1.71582 0.14634,-3.44224 -0.006,-5.15509 -0.0777,-0.29451 -0.0977,-0.56619 -0.34676,-0.78132 -0.957,-0.82652 -3.7474,1.79158 -4.89606,2.87809 -1.7222,1.70071 -3.39744,3.45096 -5.20044,5.06783 -2.13818,1.91731 -4.34692,3.75 -6.54495,5.59785 -1.42174,1.24269 -2.86025,2.47834 -4.06654,3.93961 0,0 3.63488,-1.54362 3.63488,-1.54362 z" />
    <path
       style="fill:#ff0066;fill-opacity:1;stroke:#aa0000;stroke-width:0.264583;stroke-opacity:1"
       id="path63083"
       d="m 350.9138,-287.37804 c -1.37811,-1.47654 -2.5073,-3.15086 -3.48642,-4.91087 -0.88966,-1.85525 -1.4334,-3.87617 -1.18163,-5.94527 0.0573,-0.47084 0.17333,-0.93264 0.25998,-1.39896 0.9683,-3.64942 3.14614,-6.7827 5.3244,-9.8058 2.69893,-3.51456 5.47227,-6.96582 8.04135,-10.57808 1.64179,-2.33057 3.08467,-4.78911 4.39351,-7.31902 0,0 -3.45975,1.56143 -3.45975,1.56143 v 0 c -1.26581,2.50261 -2.68268,4.92519 -4.30093,7.21868 -2.56879,3.60941 -5.35043,7.05135 -8.03534,10.57358 -2.20861,3.08173 -4.41299,6.27605 -5.35699,10.00299 -0.0843,0.48377 -0.19992,0.96312 -0.25292,1.45131 -0.23225,2.13924 0.3393,4.22661 1.265,6.13924 0.9884,1.77783 2.12127,3.4629 3.40413,5.04348 0,0 3.38561,-2.03271 3.38561,-2.03271 z" />
    <path
       style="fill:#ff0066;fill-opacity:1;stroke:#aa0000;stroke-width:0.264583;stroke-opacity:1"
       id="path63085"
       d="m 349.77085,-324.61939 c 0.15862,-0.0931 0.635,-0.37128 0.4758,-0.27925 -0.86873,0.50219 -1.74466,0.99224 -2.60437,1.50973 -0.31054,0.18693 0.63619,-0.34755 0.95623,-0.51766 1.22917,-0.65327 2.46361,-1.29606 3.6907,-1.95342 3.07017,-1.64109 6.11444,-3.32989 9.17741,-4.98435 2.60464,-1.37933 5.2133,-2.75029 7.78431,-4.19162 1.35662,-0.78813 2.71338,-1.57606 4.06987,-2.36441 1.87704,-1.09086 -0.5272,0.29207 -2.37871,1.41704 -0.0363,0.022 0.0917,-0.0598 0.12343,-0.0315 0.0273,0.0243 -0.0412,0.0624 -0.0486,0.0982 -0.029,0.141 -0.0398,0.28515 -0.0597,0.42773 -0.38857,1.96669 -0.7924,3.92976 -1.1059,5.91014 -0.33026,2.17921 -0.41865,4.38225 -0.47811,6.58216 -0.10826,1.22434 0.12116,2.53605 -0.26381,3.72466 -1.08231,0.86527 -1.12618,0.88961 3.03966,-1.82683 0.0671,-0.0438 -0.16018,0.037 -0.23921,0.0237 -0.13689,-0.023 -0.26643,-0.0794 -0.39555,-0.13051 -0.41481,-0.16411 -0.91607,-0.4198 -1.30686,-0.61018 -2.1586,-1.09936 -4.40129,-2.00264 -6.68803,-2.79467 -2.27084,-0.71585 -4.61684,-1.14319 -6.95015,-1.59588 -1.93868,-0.40538 -3.89226,-0.72707 -5.84401,-1.06058 -0.73234,-0.11718 -0.38878,-0.057 -1.03135,-0.1771 0,0 -3.21823,2.25073 -3.21823,2.25073 v 0 c 0.66977,0.11897 0.3144,0.063 1.0668,0.16291 1.97376,0.29156 3.94592,0.59267 5.89886,1.00577 2.32209,0.45575 4.65709,0.87447 6.92914,1.54738 2.26817,0.76275 4.49157,1.64538 6.59914,2.78784 1.86359,0.99705 4.30712,2.6899 5.70095,-1.29239 0.20608,-1.23792 0.0835,-2.50431 0.13314,-3.75239 0.046,-2.18049 0.13975,-4.36426 0.47606,-6.52252 0.33425,-2.00634 0.76549,-3.99185 1.19073,-5.98027 0.0111,-0.18185 0.0568,-0.36484 0.0336,-0.54555 -0.003,-0.0143 -0.15208,-0.77159 -0.46141,-0.62658 -1.29011,0.6048 -2.50264,1.36291 -3.74867,2.05398 -0.646,0.35828 -4.01423,2.51855 1.93207,-1.08548 -2.59136,1.4743 -5.2225,2.87472 -7.86093,4.26271 -3.05088,1.64566 -6.08274,3.32635 -9.14157,4.9572 -3.0671,1.64006 -6.1881,3.17729 -9.1441,5.02015 0,0 3.69128,-1.41885 3.69128,-1.41885 z" />
    <path
       style="fill:#ff0066;fill-opacity:1;stroke:#aa0000;stroke-width:0.264583;stroke-opacity:1"
       id="path63087"
       d="m 399.15879,-331.00679 c 0.44286,1.22476 0.46006,2.49031 0.29848,3.76546 -0.55375,2.62437 -1.75347,5.03603 -2.97444,7.40196 -2.00994,3.82069 -4.50657,7.14954 -7.32364,10.40127 -3.03568,3.37376 -6.57977,6.21822 -10.1686,8.97309 -2.49741,1.89659 -5.09051,3.65637 -7.80947,5.21802 4.77528,-2.65225 1.81523,-1.07099 0.64717,-0.66491 -0.42783,0.14874 -0.84939,0.25593 -1.28503,0.37408 0,0 -3.09644,2.37703 -3.09644,2.37703 v 0 c 2.6689,-0.71865 4.95128,-1.81655 7.29175,-3.45298 2.66965,-1.57074 5.21624,-3.33274 7.67416,-5.21788 3.56548,-2.77368 7.08631,-5.6344 10.0956,-9.02271 2.81398,-3.27701 5.35334,-6.68862 7.37799,-10.51927 1.25354,-2.41847 2.49907,-4.88865 3.03638,-7.58175 0.15148,-1.34056 0.10854,-2.66222 -0.29636,-3.96114 0,0 -3.46755,1.90973 -3.46755,1.90973 z" />
    <path
       style="fill:#ff0066;fill-opacity:1;stroke:#aa0000;stroke-width:0.264583;stroke-opacity:1"
       id="path63224"
       d="m 358.37915,-293.59529 c 0.30779,1.04426 0.52501,2.11402 0.72226,3.18404 0.15631,0.8776 0.22212,1.76682 0.24759,2.65673 0.0499,0.51402 -0.0492,1.01618 -0.11726,1.52244 -0.0503,0.32505 -0.16274,0.63098 -0.20502,0.96048 -0.035,0.33609 -0.0356,0.67439 -0.0373,1.01191 -0.0282,0.40676 0.0355,0.80302 0.0962,1.20317 0.0553,0.35893 0.0705,0.72186 0.0789,1.08435 -8e-5,0.40422 0.0265,0.80888 -0.019,1.21101 -0.0185,0.43632 -0.13195,0.84693 -0.23492,1.26672 -0.10478,0.38872 0.0518,0.75403 0.47447,0.80278 1.60341,-0.62493 3.2806,-1.8221 4.61709,-2.57163 0.9748,-0.54671 -1.93839,1.11345 -2.89714,1.68789 -0.17018,0.10198 0.35367,-0.17991 0.53049,-0.26987 1.37396,-0.6655 2.76596,-1.29281 4.15195,-1.93268 1.505,-0.67427 3.03395,-1.29042 4.59288,-1.82802 1.2606,-0.43624 2.5572,-0.74828 3.85323,-1.05681 1.5625,-0.40762 5.69481,-0.99866 4.30628,-2.83428 -0.79071,-0.66896 -1.7463,-1.11168 -2.64136,-1.62328 -0.96703,-0.52294 -1.91381,-1.08011 -2.86118,-1.63741 -1.01732,-0.61763 -1.9821,-1.3158 -2.94439,-2.01463 -0.97496,-0.73258 -1.90812,-1.52266 -2.73484,-2.42027 -0.46151,-0.50373 -0.87492,-1.04067 -1.2519,-1.6085 0,0 -3.41773,2.0091 -3.41773,2.0091 v 0 c 0.40701,0.57202 0.83513,1.12382 1.32056,1.63401 0.84886,0.91246 1.80525,1.71293 2.79167,2.47289 0.96333,0.71353 1.93252,1.42263 2.95072,2.05667 0.9476,0.56195 1.89484,1.12315 2.86943,1.63765 0.85095,0.49147 1.75776,0.91863 2.52092,1.54274 0.47083,0.27792 -0.009,0.0582 3.26917,-1.85633 0.0792,-0.0463 -0.17767,0.046 -0.26689,0.0675 -0.875,0.21055 0.19209,-0.0565 -0.79682,0.19387 -1.30601,0.33846 -2.62895,0.6177 -3.90726,1.05734 -1.56924,0.52451 -3.10462,1.13536 -4.62084,1.79775 -1.37536,0.63775 -2.75735,1.26096 -4.13134,1.90173 -2.27875,1.11284 -7.94903,4.48471 -1.38099,0.71599 0.258,-0.14804 -1.04828,0.55514 -0.76904,0.45268 -0.19097,0.21599 -0.10379,0.37296 -0.0449,-0.0947 0.10671,-0.43295 0.15751,-0.87348 0.19662,-1.31747 0.0241,-0.41855 0.0201,-0.83798 0.009,-1.25704 -0.0148,-0.37644 -0.0417,-0.75249 -0.10361,-1.12455 -0.0576,-0.38183 -0.086,-0.76189 -0.0628,-1.14854 0.005,-0.32033 0.0109,-0.64238 0.0664,-0.9588 0.0661,-0.32277 0.17494,-0.63657 0.19222,-0.96834 0.0674,-0.52315 0.11615,-1.04609 0.068,-1.5742 -0.0495,-0.90154 -0.13864,-1.80102 -0.3076,-2.68889 -0.20593,-1.08119 -0.43892,-2.15683 -0.68868,-3.22874 0,0 -3.4829,1.88349 -3.4829,1.88349 z" />
    <text
       xml:space="preserve"
       style="font-style:normal;font-variant:normal;font-weight:normal;font-stretch:normal;font-size:93.8694px;line-height:1.25;font-family:'Abyssinica SIL';-inkscape-font-specification:'Abyssinica SIL, Normal';font-variant-ligatures:normal;font-variant-caps:normal;font-variant-numeric:normal;font-variant-east-asian:normal;fill:#000000;fill-opacity:1;stroke:none;stroke-width:2.34673"
       x="-158.92908"
       y="-572.26611"
       id="text3804"><tspan
         sodipodi:role="line"
         id="tspan3802"
         style="font-style:normal;font-variant:normal;font-weight:normal;font-stretch:normal;font-size:93.8694px;font-family:'Abyssinica SIL';-inkscape-font-specification:'Abyssinica SIL, Normal';font-variant-ligatures:normal;font-variant-caps:normal;font-variant-numeric:normal;font-variant-east-asian:normal;stroke-width:2.34673"
         x="-158.92908"
         y="-572.26611">Good Roots</tspan></text>
  </g>
  <g
     inkscape:groupmode="layer"
     id="layer3"
     inkscape:label="Text">
    <text
       xml:space="preserve"
       style="font-style:normal;font-weight:normal;font-size:11.9011px;line-height:1.25;font-family:sans-serif;fill:#000000;fill-opacity:1;stroke:none;stroke-width:0.297527"
       x="350.65579"
       y="-397.01501"
       id="text6220-4"><tspan
         sodipodi:role="line"
         id="tspan6218-4"
         style="stroke-width:0.297527"
         x="350.65579"
         y="-397.01501">general-frontend</tspan></text>
    <text
       xml:space="preserve"
       style="font-style:normal;font-weight:normal;font-size:6.82787px;line-height:1.25;font-family:sans-serif;fill:#000000;fill-opacity:1;stroke:none;stroke-width:0.170697"
       x="194.37381"
       y="-379.36612"
       id="text46768-7"><tspan
         sodipodi:role="line"
         id="tspan46766-8"
         style="stroke-width:0.170697"
         x="194.37381"
         y="-379.36612">Characteristics:</tspan><tspan
         sodipodi:role="line"
         style="stroke-width:0.170697"
         x="194.37381"
         y="-370.8313"
         id="tspan50829">- Frontend</tspan><tspan
         sodipodi:role="line"
         style="stroke-width:0.170697"
         x="194.37381"
         y="-362.29645"
         id="tspan47333">- Pug</tspan><tspan
         sodipodi:role="line"
         style="stroke-width:0.170697"
         x="194.37381"
         y="-353.7616"
         id="tspan47335">- Express</tspan></text>
  </g>
</svg>
