<?xml version="1.0" encoding="UTF-8" standalone="no"?>
<!-- Created with Inkscape (http://www.inkscape.org/) -->

<svg
   width="210mm"
   height="297mm"
   viewBox="0 0 210 297"
   version="1.1"
   id="svg5"
   inkscape:version="1.1.2 (0a00cf5339, 2022-02-04)"
   sodipodi:docname="Explanation.svg"
   xmlns:inkscape="http://www.inkscape.org/namespaces/inkscape"
   xmlns:sodipodi="http://sodipodi.sourceforge.net/DTD/sodipodi-0.dtd"
   xmlns="http://www.w3.org/2000/svg"
   xmlns:svg="http://www.w3.org/2000/svg">
  <sodipodi:namedview
     id="namedview7"
     pagecolor="#ffffff"
     bordercolor="#666666"
     borderopacity="1.0"
     inkscape:pageshadow="2"
     inkscape:pageopacity="0.0"
     inkscape:pagecheckerboard="0"
     inkscape:document-units="mm"
     showgrid="false"
     inkscape:zoom="0.75187991"
     inkscape:cx="487.44486"
     inkscape:cy="765.41479"
     inkscape:window-width="1864"
     inkscape:window-height="1016"
     inkscape:window-x="56"
     inkscape:window-y="27"
     inkscape:window-maximized="1"
     inkscape:current-layer="layer1" />
  <defs
     id="defs2" />
  <g
     inkscape:label="Layer 1"
     inkscape:groupmode="layer"
     id="layer1">
    <rect
       style="fill:#ff7f2a;stroke:#ff6600;stroke-width:0.264583"
       id="rect848"
       width="188.968"
       height="72.137695"
       x="5.291162"
       y="114.90152"
       ry="5" />
    <text
       xml:space="preserve"
       style="font-style:normal;font-weight:normal;font-size:10.5833px;line-height:1.25;font-family:sans-serif;fill:#000000;fill-opacity:1;stroke:none;stroke-width:0.264583"
       x="11.127393"
       y="126.14595"
       id="text6220"><tspan
         sodipodi:role="line"
         id="tspan6218"
         style="stroke-width:0.264583"
         x="11.127393"
         y="126.14595">general-frontend</tspan></text>
    <rect
       style="fill:#ff2a2a;stroke:#ff6600;stroke-width:0.225114;fill-opacity:1.0"
       id="rect13424"
       width="140.38986"
       height="19.262308"
       x="-70.233353"
       y="224.61104"
       ry="5" />
    <text
       xml:space="preserve"
       style="font-style:normal;font-weight:normal;font-size:10.5833px;line-height:1.25;font-family:sans-serif;fill:#000000;fill-opacity:1;stroke:none;stroke-width:0.264583"
       x="-61.556938"
       y="237.48105"
       id="text19478"><tspan
         sodipodi:role="line"
         id="tspan19476"
         style="stroke-width:0.264583"
         x="-61.556938"
         y="237.48105">express-authentication</tspan></text>
    <rect
       style="fill:#ff2a2a;stroke:#ff6600;stroke-width:0.193213"
       id="rect20628"
       width="115.12475"
       height="18.345354"
       x="109.02063"
       y="225.74088"
       ry="5" />
    <text
       xml:space="preserve"
       style="font-style:normal;font-weight:normal;font-size:10.5833px;line-height:1.25;font-family:sans-serif;fill:#000000;fill-opacity:1;stroke:none;stroke-width:0.264583"
       x="117.67954"
       y="237.90865"
       id="text26852"><tspan
         sodipodi:role="line"
         id="tspan26850"
         style="stroke-width:0.264583"
         x="117.67954"
         y="237.90865">express-real-estate</tspan></text>
    <rect
       style="fill:#ff00ff;stroke:#ff6600;stroke-width:0.194931"
       id="rect28540"
       width="100.19427"
       height="21.907698"
       x="89.058258"
       y="131.34509"
       ry="5" />
    <text
       xml:space="preserve"
       style="font-style:normal;font-weight:normal;font-size:10.5833px;line-height:1.25;font-family:sans-serif;fill:#000000;fill-opacity:1;stroke:none;stroke-width:0.264583"
       x="96.199867"
       y="145.55762"
       id="text33772"><tspan
         sodipodi:role="line"
         id="tspan33770"
         style="stroke-width:0.264583"
         x="96.199867"
         y="145.55762">NextJS Frontend</tspan></text>
    <rect
       style="fill:#ff00ff;stroke:#ff6600;stroke-width:0.322343"
       id="rect41924"
       width="156.14812"
       height="36.568794"
       x="12.85235"
       y="36.853859"
       ry="9.6727724" />
    <text
       xml:space="preserve"
       style="font-style:normal;font-weight:normal;font-size:10.5833px;line-height:1.25;font-family:sans-serif;fill:#000000;fill-opacity:1;stroke:none;stroke-width:0.264583"
       x="18.730265"
       y="64.668358"
       id="text46768"><tspan
         sodipodi:role="line"
         id="tspan46766"
         style="stroke-width:0.264583"
         x="18.730265"
         y="64.668358">Pug Frontend</tspan></text>
    <text
       xml:space="preserve"
       style="font-style:normal;font-weight:normal;font-size:6.80185px;line-height:1.25;font-family:sans-serif;fill:#000000;fill-opacity:1;stroke:none;stroke-width:0.170046"
       x="9.0424728"
       y="161.93677"
       id="text58497"><tspan
         sodipodi:role="line"
         id="tspan58495"
         style="stroke-width:0.170046"
         x="9.0424728"
         y="161.93677">Features</tspan><tspan
         sodipodi:role="line"
         style="stroke-width:0.170046"
         x="9.0424728"
         y="170.43909"
         id="tspan58499">- Session manager</tspan><tspan
         sodipodi:role="line"
         style="stroke-width:0.170046"
         x="9.0424728"
         y="178.94139"
         id="tspan59095">- Real estate manager</tspan></text>
    <path
       style="fill:#ff0066;stroke:#aa0000;stroke-width:0.7;stroke-miterlimit:4;stroke-dasharray:none"
       id="path60970"
       d="m 15.240448,217.40184 c 0.290806,-0.88559 0.611856,-1.7615 0.931952,-2.63692 0.712733,-1.94914 1.444965,-3.89108 2.157508,-5.84031 0.895526,-2.42514 1.729465,-4.87225 2.560386,-7.32006 0.380311,-1.09528 0.737742,-2.19818 1.092614,-3.30188 0,0 -2.603321,1.22656 -2.603321,1.22656 v 0 c -0.349311,1.09959 -0.701923,2.19814 -1.077237,3.28922 -0.827038,2.44839 -1.662053,4.89445 -2.567774,7.31514 -0.726904,1.95756 -1.471053,3.90861 -2.207146,5.86272 -0.334942,0.89021 -0.670572,1.78031 -0.991894,2.67555 0,0 2.704912,-1.27002 2.704912,-1.27002 z" />
    <path
       style="fill:#ff0066;stroke:#aa0000;stroke-width:0.7;stroke-miterlimit:4;stroke-dasharray:none"
       id="path60972"
       d="m 12.171956,201.64814 c 0.734905,-0.69894 1.436436,-1.43177 2.134344,-2.16731 1.446174,-1.51866 2.905111,-3.02523 4.366406,-4.52935 1.692674,-1.75625 3.349754,-3.54613 5.018224,-5.32521 1.164538,-1.217 2.27261,-2.49052 3.512525,-3.63273 0.881915,-0.59667 2.645762,-1.88157 -1.454006,0.81952 -0.07396,0.0487 0.174177,-0.0425 0.262703,-0.0398 0.222861,0.007 0.278212,0.0879 0.453751,0.21253 0.663882,0.78868 0.89871,1.835 1.162743,2.80753 0.398666,1.5911 0.767427,3.18944 1.159991,4.78203 0.408914,1.63678 0.959231,3.23121 1.527154,4.81797 0.225727,0.87863 0.801378,1.69581 0.858846,2.61513 -0.0676,0.15222 -0.0093,0.11041 -0.174811,0.12578 0.805273,-0.48118 1.622619,-0.9427 2.415816,-1.44353 0.05098,-0.0322 -0.11796,0.0299 -0.178242,0.0307 -0.17703,0.003 -0.371187,-0.0533 -0.539718,-0.091 -0.797357,-0.23377 -1.596293,-0.45681 -2.407021,-0.63958 -0.757031,-0.16865 -1.5225,-0.29484 -2.296284,-0.34932 -0.09759,-0.002 -0.195186,-0.004 -0.29278,-0.006 0,0 -2.399701,1.74594 -2.399701,1.74594 v 0 c 0.09523,-0.003 0.190463,-0.007 0.285694,-0.01 0.768133,0.0227 1.527846,0.14052 2.278829,0.30118 0.806717,0.17402 1.604253,0.38184 2.388881,0.63895 1.375156,0.40392 3.441308,0.36014 3.552846,-1.68612 -0.161875,-0.92571 -0.669243,-1.75228 -0.942205,-2.6454 -0.575366,-1.57262 -1.123106,-3.15644 -1.524228,-4.78423 -0.390064,-1.59714 -0.754729,-3.20026 -1.144421,-4.79749 -0.275031,-1.03974 -0.531,-2.13442 -1.22043,-2.98914 -1.503439,-1.32584 -3.158588,0.72138 -4.485634,1.6982 -1.201071,1.15989 -2.303455,2.41541 -3.451195,3.62708 -1.660437,1.78158 -3.316833,3.56712 -5.011626,5.31626 -1.474614,1.51349 -2.948126,3.02812 -4.412896,4.55114 -0.71801,0.74249 -1.43802,1.48484 -2.206088,2.17621 0,0 2.762533,-1.13024 2.762533,-1.13024 z" />
    <path
       style="fill:#ff0066;stroke:#aa0000;stroke-width:0.7;stroke-miterlimit:4;stroke-dasharray:none"
       id="path60978"
       d="m 48.237187,190.42798 c -0.04386,1.01408 -0.232989,2.01187 -0.434919,3.00396 -0.43356,1.96369 -1.054828,3.87997 -1.654649,5.79758 -0.705006,2.24975 -1.413846,4.49823 -2.102379,6.75309 -0.389665,1.25908 -0.760439,2.52383 -1.12485,3.7904 0,0 2.620553,-1.24494 2.620553,-1.24494 v 0 c 0.355346,-1.26152 0.717872,-2.52103 1.102452,-3.77402 0.683654,-2.255 1.389505,-4.50304 2.100615,-6.74952 0.608277,-1.93319 1.242052,-3.86354 1.683019,-5.84354 0.211233,-1.01547 0.399762,-2.03621 0.476925,-3.07212 0,0 -2.666767,1.33911 -2.666767,1.33911 z" />
    <path
       style="fill:#ff0066;stroke:#aa0000;stroke-width:0.7;stroke-miterlimit:4;stroke-dasharray:none"
       id="path60980"
       d="m 34.549987,205.19445 c 0.149757,0.75001 0.259784,1.50687 0.388858,2.26051 0.252437,1.45728 0.496769,2.91583 0.771276,4.36915 0.334066,1.81974 0.803125,3.60897 1.372296,5.36823 0.484616,1.52175 1.167263,2.96038 1.997549,4.32092 0.537218,0.85163 1.154941,1.64843 1.837727,2.38751 0.312939,0.32253 0.654664,0.62304 1.100368,0.72738 1.316225,0.0321 2.399768,-1.03249 3.240984,-1.96618 0.440224,-0.53945 0.980755,-0.98412 1.514607,-1.42649 1.106358,-0.88804 2.257044,-1.71918 3.418594,-2.53301 1.460114,-1.00086 2.935952,-1.97837 4.3956,-2.97993 0.879705,-0.66335 1.940449,-1.20406 2.538693,-2.16243 0.301643,-0.82339 -0.584743,-1.16164 -1.196182,-1.4239 -1.560025,-0.55937 -3.163652,-0.9891 -4.757652,-1.43951 -1.804646,-0.50568 -3.613169,-0.99765 -5.415706,-1.51081 0,0 -2.400885,1.6456 -2.400885,1.6456 v 0 c 1.810004,0.50411 3.626787,0.98388 5.43429,1.49712 1.572001,0.45041 3.15078,0.88782 4.690018,1.44231 0.455887,0.18885 1.294421,0.34712 0.928211,0.97113 -0.677185,0.85741 -1.659234,1.40217 -2.525906,2.04303 -1.459997,1.00076 -2.93674,1.97675 -4.393221,2.98264 -1.17095,0.82629 -2.335739,1.66405 -3.446266,2.57084 -0.541539,0.45955 -1.075323,0.92914 -1.529649,1.47794 -0.07752,0.0866 -0.15466,0.17976 -0.243787,0.25565 -0.0347,0.0295 -0.150019,0.10317 -0.110395,0.0807 3.705791,-2.10564 3.10497,-1.90551 2.278716,-1.27297 -0.393181,0.10199 -0.725268,-0.29051 -0.992907,-0.51802 -0.68656,-0.71075 -1.30161,-1.48654 -1.83692,-2.31792 -0.829323,-1.33361 -1.507908,-2.74788 -1.986944,-4.24689 -0.565171,-1.74848 -1.026917,-3.52793 -1.348698,-5.33829 -0.26484,-1.45677 -0.501364,-2.91836 -0.737613,-4.38001 -0.118044,-0.75871 -0.229725,-1.51852 -0.34331,-2.27786 0,0 -2.641746,1.3936 -2.641746,1.3936 z" />
    <path
       style="fill:#ff0066;stroke:#aa0000;stroke-width:0.7;stroke-miterlimit:4;stroke-dasharray:none"
       id="path60982"
       d="m 135.26459,220.77268 c -0.42104,-0.78897 -0.85173,-1.57269 -1.28439,-2.35538 -0.8354,-1.4883 -1.56196,-3.0323 -2.2491,-4.59337 -0.8428,-1.97754 -1.60288,-3.98868 -2.35502,-6.00199 -0.67245,-1.87181 -1.44812,-3.70259 -2.24571,-5.52362 -0.10932,-0.2419 -0.21865,-0.48381 -0.32798,-0.72572 0,0 -2.53473,1.4317 -2.53473,1.4317 v 0 c 0.11103,0.23959 0.22207,0.47917 0.3331,0.71875 0.8101,1.80841 1.58908,3.63048 2.25939,5.49631 0.75453,2.01845 1.51795,4.03424 2.35325,6.02096 0.68278,1.57303 1.40416,3.12944 2.22693,4.63508 0.42203,0.78522 0.84634,1.56969 1.23003,2.37464 0,0 2.59423,-1.47736 2.59423,-1.47736 z" />
    <path
       style="fill:#ff0066;stroke:#aa0000;stroke-width:0.7;stroke-miterlimit:4;stroke-dasharray:none"
       id="path60984"
       d="m 120.06271,204.63667 c 0.0249,-0.87649 0.0374,-1.75323 0.0488,-2.62997 0.008,-1.5033 -0.0482,-3.00564 -0.10823,-4.50741 -0.0567,-1.54931 -0.18052,-3.0937 -0.33525,-4.63584 -0.10952,-1.04317 -0.25984,-2.08133 -0.38995,-3.12192 -0.004,-0.0757 -0.0388,-0.32151 0.0202,-0.41514 0.0181,-0.0288 0.12229,-0.0591 0.0933,-0.0413 -0.8121,0.49817 -1.63963,0.97137 -2.4434,1.48289 -0.0361,0.023 0.0865,-0.0197 0.12803,-0.009 0.0736,0.0183 0.1384,0.062 0.2076,0.093 0.90278,0.60721 1.8498,1.13132 2.82734,1.60713 1.8456,0.86279 3.83439,1.31307 5.82166,1.70745 2.39353,0.44378 4.82403,0.61245 7.25245,0.71313 1.64855,0.0637 3.29874,0.0196 4.94757,0.0555 0.22111,0.0214 1.44338,0.002 1.08381,0.49261 -0.62211,0.69381 -1.38813,1.23366 -2.14013,1.77499 -1.35729,0.96463 -2.76548,1.85433 -4.17948,2.73271 -0.9445,0.5862 -1.90294,1.14926 -2.85954,1.71532 0,0 2.71973,-1.0476 2.71973,-1.0476 v 0 c 0.95193,-0.56531 1.90387,-1.1307 2.84373,-1.71599 1.42053,-0.8864 2.83433,-1.78586 4.19594,-2.76134 0.76431,-0.5591 1.65804,-1.11908 2.10749,-1.97839 0.0537,-0.81823 -0.72636,-0.9029 -1.39302,-0.93279 -1.66518,-0.0338 -3.33163,0.0422 -4.99694,-0.0138 -2.41971,-0.083 -4.84184,-0.23964 -7.22739,-0.67562 -1.95919,-0.38503 -3.92151,-0.82173 -5.74089,-1.67165 -0.9653,-0.47249 -1.90867,-0.98482 -2.77407,-1.62673 -0.11109,-0.0698 -0.42117,-0.2696 -0.4411,-0.25981 -2.01103,0.98736 -2.84941,0.69406 -2.67272,2.15554 0.15711,1.02886 0.30698,2.05887 0.42116,3.09357 0.15981,1.53454 0.28247,3.07196 0.33708,4.61428 0.0574,1.5003 0.10559,3.00152 0.0799,4.50315 -0.0202,0.88116 -0.0368,1.76323 -0.1005,2.64256 0,0 2.66679,-1.33911 2.66679,-1.33911 z" />
    <path
       style="fill:#ff0066;stroke:#aa0000;stroke-width:0.7;stroke-miterlimit:4;stroke-dasharray:none"
       id="path60988"
       d="m 153.53628,195.01175 c 0.36874,0.78671 0.71517,1.58368 1.07595,2.37409 0.76397,1.665 1.53265,3.32756 2.32768,4.97799 0.94976,1.99976 1.99388,3.95223 3.04533,5.89973 0.61258,1.12917 1.24625,2.24658 1.89283,3.35654 0,0 2.51224,-1.45321 2.51224,-1.45321 v 0 c -0.65454,-1.10131 -1.29297,-2.21198 -1.90736,-3.33629 -1.05389,-1.94083 -2.09859,-3.88781 -3.03722,-5.88781 -0.78613,-1.6534 -1.54378,-3.3197 -2.28341,-4.99443 -0.34997,-0.79872 -0.69098,-1.60118 -1.02603,-2.40627 0,0 -2.60001,1.46966 -2.60001,1.46966 z" />
    <path
       style="fill:#ff0066;stroke:#aa0000;stroke-width:0.7;stroke-miterlimit:4;stroke-dasharray:none"
       id="path60990"
       d="m 156.47148,216.61172 c 0.7903,-0.4833 1.58449,-0.95966 2.36925,-1.45201 1.57266,-0.96287 3.14672,-1.92322 4.7053,-2.90879 1.62377,-1.02981 3.23365,-2.08092 4.84449,-3.13072 0.98086,-0.74082 5.28815,-3.2231 0.59483,-0.4699 0.607,-0.31219 1.18331,-0.40737 1.77804,-0.0486 0.59424,0.49502 0.86078,1.2168 1.05837,1.94056 0.23209,1.05219 0.12997,2.12645 0.0209,3.1862 -0.12773,1.14149 -0.34338,2.27055 -0.59267,3.39101 -0.18358,0.79468 -0.35301,1.59228 -0.54517,2.38492 -0.12849,0.60521 -0.30892,1.19612 -0.52471,1.77538 -0.2175,0.58488 -0.48575,1.14821 -0.76145,1.70731 -0.24243,0.50821 -0.49261,1.01263 -0.76106,1.50763 -0.60087,1.05716 -2.18945,1.57611 1.9955,-0.8917 -0.58565,-0.0212 -1.17428,-0.49872 -1.67416,-0.77846 -1.3074,-0.75309 -2.66149,-1.41696 -4.03381,-2.04188 -0.96546,-0.43296 -1.9463,-0.82958 -2.93043,-1.21766 0,0 -2.42204,1.62579 -2.42204,1.62579 v 0 c 0.98495,0.3791 1.96593,0.76858 2.9299,1.19892 1.36193,0.61597 2.70616,1.27157 3.99098,2.03813 0.57768,0.33402 1.1382,0.71332 1.75536,0.97056 1.92736,-1.05621 2.42428,-0.80266 3.10042,-2.12322 0.25756,-0.50035 0.50681,-1.00479 0.7492,-1.51268 0.27461,-0.5679 0.53605,-1.14267 0.74908,-1.737 0.20582,-0.59071 0.37792,-1.19153 0.50715,-1.80396 0.18439,-0.79185 0.34669,-1.58857 0.52466,-2.38187 0.23631,-1.13043 0.44755,-2.26717 0.56954,-3.41642 0.10746,-1.09575 0.19816,-2.20621 -0.0565,-3.29043 -0.22235,-0.79236 -0.52685,-1.56467 -1.15264,-2.12971 -0.62811,-0.4531 -1.254,-0.52587 -1.97291,-0.19702 -1.89964,1.07444 -3.81663,2.11173 -5.6029,3.37017 -1.60268,1.05 -3.20914,2.09401 -4.82787,3.1192 -1.57107,0.98755 -3.15678,1.95115 -4.73929,2.9202 -0.80601,0.49789 -1.62043,0.98165 -2.42968,1.4742 0,0 2.78431,-1.07818 2.78431,-1.07818 z" />
    <path
       style="fill:#ff0066;stroke:#aa0000;stroke-width:0.7;stroke-miterlimit:4;stroke-dasharray:none"
       id="path60992"
       d="m 75.024368,108.3757 c -0.0089,-0.84469 -0.03611,-1.68881 -0.07153,-2.53278 -0.09465,-1.86742 -0.247232,-3.73134 -0.388565,-5.59565 -0.157054,-2.224361 -0.32634,-4.447684 -0.509656,-6.670015 -0.110347,-1.238596 -0.219427,-2.477288 -0.344321,-3.714506 0,0 -2.576581,1.346975 -2.576581,1.346975 v 0 c 0.134313,1.230889 0.252772,2.463385 0.365977,3.696393 0.189595,2.220788 0.359727,4.442995 0.509365,6.666863 0.133763,1.86776 0.276609,3.73581 0.340098,5.60758 0.0213,0.85035 0.03828,1.70113 0.01297,2.55162 0,0 2.662242,-1.35648 2.662243,-1.35648 z" />
    <path
       style="fill:#ff0066;stroke:#aa0000;stroke-width:0.7;stroke-miterlimit:4;stroke-dasharray:none"
       id="path60994"
       d="m 63.023768,91.791702 c 0.535617,-0.567103 0.981241,-1.20789 1.433131,-1.841178 0.838438,-1.205468 1.619978,-2.448726 2.391601,-3.697549 0.868264,-1.386954 1.641371,-2.830105 2.383089,-4.287708 0.509098,-1.015923 0.958421,-2.061308 1.523917,-3.048024 0.137793,-0.191005 0.247034,-0.368104 0.425644,-0.523795 0.06767,-0.05899 0.300455,-0.196395 0.222982,-0.15104 -4.193463,2.455045 -2.877179,1.341823 -1.845693,1.285708 0.75651,0.105066 1.38948,0.573789 2.001126,0.99835 0.95011,0.683704 1.817915,1.470633 2.671331,2.269199 0.850125,0.79344 1.624997,1.660712 2.339967,2.576578 0.516496,0.665888 0.936895,1.391793 1.212636,2.188004 0.208092,0.626075 0.156183,1.212215 -0.124487,1.798669 -0.245454,0.394824 -0.588521,0.71238 -0.981157,0.958387 -0.11198,0.07016 -0.459208,0.261721 -0.345464,0.194453 0.7189,-0.425149 1.440667,-0.845426 2.161003,-1.26814 -0.513987,0.260543 -1.0639,0.433192 -1.613477,0.599519 0,0 -2.337718,1.802032 -2.337718,1.802032 v 0 c 0.557633,-0.156789 1.115634,-0.318796 1.646153,-0.554815 1.337146,-0.758388 3.352059,-1.452811 4.163161,-2.972409 0.238209,-0.661855 0.256532,-1.319262 0.02106,-1.990801 -0.301294,-0.820108 -0.734972,-1.573536 -1.274966,-2.261651 -0.727847,-0.92521 -1.516046,-1.800891 -2.373775,-2.608281 -0.858785,-0.809413 -1.731158,-1.607367 -2.679205,-2.312527 -0.642525,-0.46134 -1.296342,-0.943573 -2.07308,-1.148522 -1.569217,-0.242763 -3.112809,1.037331 -3.911496,2.326979 -0.532329,0.995786 -0.978972,2.033249 -1.48576,3.041923 -0.74022,1.450329 -1.513748,2.884701 -2.384761,4.261588 -0.779682,1.250018 -1.571435,2.493475 -2.429375,3.691786 -0.462664,0.633167 -0.928159,1.26949 -1.494605,1.815757 0,0 2.75822,-1.142492 2.75822,-1.142492 z" />
    <path
       style="fill:#ff0066;stroke:#aa0000;stroke-width:0.7;stroke-miterlimit:4;stroke-dasharray:none"
       id="path60996"
       d="m 93.115891,82.720272 c 0.113257,1.046427 0.194826,2.095875 0.280754,3.144803 0.155705,1.932373 0.23625,3.869578 0.308579,5.806516 0.06373,2.071291 0.137453,4.142124 0.280196,6.209615 0.02199,0.28951 0.04395,0.579017 0.06593,0.868524 0,0 2.575912,-1.338292 2.575912,-1.338292 v 0 c -0.02381,-0.287694 -0.04765,-0.575392 -0.07148,-0.863086 -0.152463,-2.061787 -0.229301,-4.127545 -0.288594,-6.193957 -0.06955,-1.945206 -0.146048,-3.890582 -0.283223,-5.832414 -0.07391,-1.056796 -0.155218,-2.113307 -0.217604,-3.170783 0,0 -2.650469,1.369074 -2.65047,1.369074 z" />
    <path
       style="fill:#ff0066;stroke:#aa0000;stroke-width:0.7;stroke-miterlimit:4;stroke-dasharray:none"
       id="path60998"
       d="m 86.657523,97.365147 c 0.723723,0.04054 1.448557,0.05432 2.173174,0.06787 1.36254,0.02267 2.725263,0.03074 4.087955,0.03811 1.691529,0.01066 3.382965,0.01992 5.074473,0.0041 1.273688,-0.02992 2.547565,-0.02326 3.815935,0.103034 0.60271,0.07889 1.2647,0.150784 1.66754,0.651293 0.29231,0.633206 0.0546,1.323658 -0.16308,1.941696 -0.43216,1.16128 -1.16489,2.16566 -1.91776,3.13619 -0.91543,1.14931 -1.934314,2.20756 -2.970711,3.24667 -0.716653,0.73924 -1.448991,1.46432 -2.256904,2.10399 -0.955778,0.63928 -0.7636,0.50319 2.0408,-1.17461 0.0572,-0.0342 -0.118811,0.0621 -0.182583,0.0815 -0.234784,0.0713 -0.384887,-0.041 -0.577091,-0.16132 -0.784415,-0.70278 -1.398754,-1.57489 -2.017937,-2.42088 -0.775388,-1.07787 -1.509676,-2.18431 -2.268321,-3.27387 -0.261781,-0.38003 -0.542293,-0.74614 -0.82709,-1.10898 0,0 -2.536796,1.51627 -2.536796,1.51627 v 0 c 0.288375,0.35331 0.572162,0.71028 0.835374,1.08305 0.771285,1.08276 1.50925,2.18867 2.280148,3.27174 0.630489,0.87585 1.25721,1.76866 2.030783,2.526 0.166965,0.13018 0.290967,0.24809 0.489571,0.32661 0.116192,0.0459 0.337902,0.0901 0.460426,0.0233 2.413905,-1.31566 1.963245,-0.98813 3.017136,-1.79359 0.781135,-0.65954 1.500275,-1.38595 2.212135,-2.11888 1.03273,-1.04859 2.04522,-2.1193 2.95326,-3.27963 0.75794,-1.00151 1.48813,-2.04017 1.90428,-3.237406 0.227,-0.726464 0.42051,-1.494581 0.0472,-2.208731 -0.44381,-0.586613 -1.10922,-0.759995 -1.82035,-0.836658 -1.28431,-0.137729 -2.57508,-0.145679 -3.86559,-0.108508 -1.689556,0.02201 -3.379008,0.01495 -5.068621,-0.0016 -1.35322,-0.01204 -2.706484,-0.02469 -4.059468,-0.0536 -0.709914,-0.01714 -1.420376,-0.03218 -2.128954,-0.0814 0,0 -2.428954,1.738354 -2.428954,1.738354 z" />
    <text
       xml:space="preserve"
       style="font-style:normal;font-weight:normal;font-size:12.0918px;line-height:1.25;font-family:sans-serif;fill:#000000;fill-opacity:1;stroke:none;stroke-width:0.302296"
       x="56.003372"
       y="49.410263"
       id="text72262"><tspan
         sodipodi:role="line"
         id="tspan72260"
         style="stroke-width:0.302296"
         x="56.003372"
         y="49.410263">good-roots</tspan></text>
    <rect
       style="fill:#ff0066;stroke:#aa0000;stroke-width:0.7;stroke-miterlimit:4;stroke-dasharray:none;fill-opacity:1"
       id="rect73885"
       width="27.1574"
       height="27.635693"
       x="-239.04427"
       y="108.54389"
       ry="4.9265418" />
    <text
       xml:space="preserve"
       style="font-style:normal;font-weight:normal;font-size:10.5833px;line-height:1.25;font-family:sans-serif;fill:#000000;fill-opacity:1;stroke:none;stroke-width:0.264583"
       x="-230.88927"
       y="93.093895"
       id="text77871"><tspan
         sodipodi:role="line"
         id="tspan77869"
         style="stroke-width:0.264583"
         x="-230.88927"
         y="93.093895">Color picker</tspan></text>
    <rect
       style="fill:#ff2a2a;fill-opacity:1;stroke:#ff6600;stroke-width:0.781758;stroke-miterlimit:4;stroke-dasharray:none"
       id="rect86837"
       width="148.54996"
       height="33.167622"
       x="16.180744"
       y="277.681"
       ry="5.746254" />
    <text
       xml:space="preserve"
       style="font-style:normal;font-weight:normal;font-size:10.5833px;line-height:1.25;font-family:sans-serif;fill:#000000;fill-opacity:1;stroke:none;stroke-width:0.264583"
       x="29.79999"
       y="289.04196"
       id="text116209"><tspan
         sodipodi:role="line"
         id="tspan116207"
         style="stroke-width:0.264583"
         x="29.79999"
         y="289.04196">backdoor-server-access</tspan></text>
    <text
       xml:space="preserve"
       style="font-style:normal;font-weight:normal;font-size:10.5833px;line-height:1.25;font-family:sans-serif;fill:#000000;fill-opacity:1;stroke:none;stroke-width:0.264583"
       x="30.222353"
       y="304.14755"
       id="text122945"><tspan
         sodipodi:role="line"
         id="tspan122943"
         style="stroke-width:0.264583"
         x="30.222353"
         y="304.14755">For testing mainly</tspan></text>
    <path
       style="fill:#ff0066;fill-opacity:1;stroke:#aa0000;stroke-width:0.7;stroke-miterlimit:4;stroke-dasharray:none"
       id="path125850"
       d="m 37.340018,274.01057 c -0.739415,-0.39214 -1.501378,-0.74002 -2.260986,-1.09077 -1.040701,-0.45792 -2.064803,-0.95031 -3.061541,-1.49728 -0.977085,-0.51573 -1.783337,-1.24333 -2.489071,-2.08272 -0.826132,-1.04982 -1.340884,-2.2868 -1.792372,-3.53195 -0.526571,-1.52454 -0.888471,-3.09831 -1.211945,-4.67627 -0.257327,-1.36905 -0.484557,-2.74347 -0.733934,-4.114 0,0 -2.588438,1.37931 -2.588438,1.37931 v 0 c 0.259232,1.3683 0.492998,2.7412 0.756814,4.1086 0.332653,1.59005 0.699954,3.17655 1.227221,4.71518 0.460018,1.27873 0.985617,2.54765 1.826356,3.62979 0.719804,0.87244 1.540031,1.63703 2.544096,2.17721 0.999725,0.55467 2.02775,1.05328 3.0744,1.51352 0.743529,0.34591 1.488741,0.69217 2.20354,1.09511 0,0 2.50586,-1.62573 2.50586,-1.62573 z" />
    <path
       style="fill:#ff0066;fill-opacity:1;stroke:#aa0000;stroke-width:0.7;stroke-miterlimit:4;stroke-dasharray:none"
       id="path125852"
       d="m 18.116092,260.36428 c -0.0097,-0.76055 0.04389,-1.52057 0.07706,-2.28015 0.07874,-1.30174 0.138241,-2.60441 0.186672,-3.90759 0.06472,-1.45811 0.05523,-2.91736 -0.01154,-4.37496 -0.05512,-1.24684 -0.158844,-2.49058 -0.252936,-3.73486 -0.07953,-0.86734 -0.163736,-1.73427 -0.248647,-2.6011 0.01411,-0.2956 -0.210571,-0.85575 0.06841,-1.08036 1.017863,-0.17745 -0.06185,-2.2e-4 -2.323089,1.42054 -0.04167,0.0262 0.09793,-0.0142 0.14711,-0.0125 0.213977,0.007 0.414404,0.10286 0.608956,0.18053 0.780576,0.36359 1.535136,0.78023 2.29852,1.17806 1.177528,0.61137 2.362481,1.20818 3.541957,1.81582 1.362365,0.70365 2.693161,1.46581 4.001821,2.26431 1.265009,0.77495 2.467736,1.64348 3.627029,2.56758 0.870413,0.69852 1.660679,1.4872 2.473878,2.24936 0.37171,0.36083 0.784847,0.689 1.105702,1.09862 0.01151,0.0294 0.06472,0.0964 -0.0021,0.11692 -1.354352,0.41672 3.479445,-1.7719 1.83075,-1.27809 -1.086803,0.26962 -2.130459,0.67758 -3.174473,1.07623 -1.506742,0.57452 -3.007744,1.16336 -4.525794,1.70756 -0.2282,0.0793 -0.456401,0.15849 -0.684601,0.23773 0,0 -2.302651,1.79329 -2.302651,1.79329 v 0 c 0.230187,-0.0796 0.460374,-0.1592 0.690561,-0.2388 1.518348,-0.54094 3.019385,-1.12675 4.525817,-1.69977 1.026374,-0.39092 2.04856,-0.80635 3.11713,-1.07028 1.291079,-0.30304 0.42708,-0.0734 3.060493,-1.5816 0.216432,-0.12395 0.118997,-0.43116 0.0259,-0.59156 -0.334788,-0.42165 -0.764508,-0.75736 -1.157597,-1.12178 -0.831831,-0.7556 -1.62951,-1.55003 -2.507512,-2.25364 -1.17049,-0.93028 -2.383726,-1.80562 -3.657063,-2.59094 -1.310388,-0.8051 -2.642208,-1.57546 -4.006113,-2.28682 -1.174968,-0.60812 -2.354473,-1.20749 -3.52448,-1.82504 -0.762928,-0.40272 -1.517015,-0.82207 -2.285412,-1.21441 -1.253227,-0.5732 -2.804389,-0.65248 -3.629251,1.28524 -0.09,0.40591 -0.01492,0.81829 0.03079,1.22615 0.09606,0.86032 0.184802,1.7215 0.266073,2.58333 0.100537,1.23826 0.208921,2.47611 0.265341,3.71743 0.06385,1.45053 0.06732,2.90258 5.6e-5,4.35332 -0.05347,1.30549 -0.119775,2.61031 -0.206265,3.91407 -0.0425,0.77095 -0.09713,1.54162 -0.11114,2.31381 0,0 2.660592,-1.35564 2.660592,-1.35564 z" />
    <path
       style="fill:#ff0066;fill-opacity:1;stroke:#aa0000;stroke-width:0.7;stroke-miterlimit:4;stroke-dasharray:none"
       id="path125854"
       d="m 40.281161,250.03748 c 0.139978,0.87856 0.243226,1.76218 0.377809,2.64159 0.211307,1.42784 0.501568,2.84079 0.864915,4.23725 0.405556,1.55894 1.039865,3.03329 1.816865,4.43938 0.807156,1.43322 1.979287,2.55952 3.244619,3.58291 0.847852,0.67842 1.796146,1.20865 2.742502,1.73326 0,0 2.439281,-1.59168 2.439281,-1.59168 v 0 c -0.938046,-0.50898 -1.878031,-1.02413 -2.718586,-1.68792 -1.24247,-0.99293 -2.393426,-2.0872 -3.1838,-3.48762 -0.766268,-1.38442 -1.387126,-2.83857 -1.779214,-4.37602 -0.354698,-1.39028 -0.63504,-2.79692 -0.834218,-4.21832 -0.123873,-0.88434 -0.226677,-1.77139 -0.327443,-2.65861 0,0 -2.64273,1.38578 -2.64273,1.38578 z" />
    <path
       style="fill:#ff0066;fill-opacity:1;stroke:#aa0000;stroke-width:0.7;stroke-miterlimit:4;stroke-dasharray:none"
       id="path125860"
       d="m 43.986756,273.74418 c 0.676746,-0.54059 1.317006,-1.12395 1.955271,-1.70886 1.325708,-1.24875 2.629575,-2.52047 3.948557,-3.77645 1.519574,-1.42251 3.085682,-2.79321 4.70408,-4.10194 1.20749,-0.96902 2.454772,-1.8873 3.74813,-2.7382 0.786873,-0.49385 2.206551,-1.37756 -1.604365,0.91301 -0.127209,0.0765 0.262083,-0.13991 0.397664,-0.20029 0.358947,-0.15985 0.691729,-0.22699 1.079357,-0.25984 0.82863,0.0199 1.438079,0.51678 1.978202,1.09391 0.727599,0.90879 1.142582,2.00794 1.553237,3.08402 0.452977,1.21868 0.813892,2.46912 1.179708,3.71605 0.230044,0.90416 0.610835,1.77446 0.755309,2.6987 -0.0167,0.0723 -0.01106,0.15377 -0.0501,0.21688 -0.03518,0.0569 -0.106272,0.0812 -0.159408,0.12181 0.761404,-0.46754 1.540168,-0.90794 2.284216,-1.40266 0.09502,-0.0632 -0.214841,0.0803 -0.326993,0.10133 -0.308084,0.0578 -0.684025,0.0471 -0.990976,0.0509 -1.468974,-0.0249 -2.930377,-0.18346 -4.388604,-0.3501 -1.632696,-0.19894 -3.262651,-0.41894 -4.896371,-0.60941 -1.321869,-0.15537 -2.645397,-0.29208 -3.976095,-0.3342 -0.748416,-0.0233 -1.492525,0.0295 -2.227024,0.17108 0,0 -2.355879,1.79054 -2.355879,1.79054 v 0 c 0.722707,-0.17775 1.458029,-0.25524 2.203497,-0.24127 1.332175,0.0196 2.657018,0.14682 3.980186,0.29853 1.635418,0.18423 3.26685,0.4001 4.899591,0.60637 1.45642,0.17375 2.915052,0.33962 4.381796,0.39444 1.535385,0.0393 4.214656,-0.191 4.237371,-2.20692 -0.191871,-0.92337 -0.549196,-1.80318 -0.797208,-2.712 -0.374245,-1.25153 -0.742199,-2.50669 -1.196422,-3.73213 -0.42204,-1.11205 -0.849096,-2.24507 -1.589791,-3.19118 -0.574535,-0.63968 -1.225101,-1.19431 -2.109259,-1.31182 -1.839354,-0.0337 -3.518807,1.50239 -4.991645,2.36241 -1.27364,0.86075 -2.506855,1.77938 -3.700002,2.74889 -1.609801,1.31905 -3.172163,2.69415 -4.688673,4.11972 -1.329386,1.26312 -2.641571,2.54463 -3.990946,3.78637 -0.655801,0.58873 -1.311701,1.18129 -2.023882,1.70212 0,0 2.777468,-1.09985 2.777468,-1.09985 z" />
    <path
       style="fill:#ff0066;fill-opacity:1;stroke:#aa0000;stroke-width:0.7;stroke-miterlimit:4;stroke-dasharray:none"
       id="path125862"
       d="m 124.93563,273.38604 c -0.10438,-0.79898 -0.20824,-1.59789 -0.29942,-2.3985 -0.21413,-1.4537 -0.0677,-2.90271 0.19562,-4.33699 0.41059,-1.9108 1.17028,-3.71226 2.00798,-5.46872 0.88124,-1.74252 1.8542,-3.43662 2.84705,-5.11737 0.13958,-0.23679 0.27916,-0.47359 0.41874,-0.71038 0,0 -2.65741,1.18104 -2.65741,1.18104 v 0 c -0.13752,0.23585 -0.27503,0.4717 -0.41254,0.70755 -0.98278,1.68738 -1.95209,3.38455 -2.82133,5.13391 -0.83623,1.78206 -1.59223,3.61044 -1.99331,5.54627 -0.25777,1.46523 -0.39522,2.9433 -0.18709,4.42658 0.0846,0.80365 0.18933,1.60576 0.2501,2.41157 0,0 2.65161,-1.37496 2.65161,-1.37496 z" />
    <path
       style="fill:#ff0066;fill-opacity:1;stroke:#aa0000;stroke-width:0.7;stroke-miterlimit:4;stroke-dasharray:none"
       id="path125864"
       d="m 121.76832,257.70459 c 0.69016,-0.57435 1.38835,-1.13896 2.08591,-1.70425 1.23412,-0.99768 2.53183,-1.91185 3.82929,-2.82418 1.39565,-0.97493 2.81142,-1.92046 4.24644,-2.83635 0.28808,-0.17854 3.71925,-2.29674 -1.27462,0.71565 -0.17473,0.1054 0.35816,-0.19608 0.54217,-0.28429 0.45716,-0.21916 0.88237,-0.33849 1.38062,-0.40867 0.90584,-0.0514 1.43921,0.49095 1.90081,1.19661 0.55857,0.97943 0.77625,2.08824 0.96064,3.18669 0.17391,1.15456 0.26266,2.32125 0.3143,3.4872 -0.0331,0.61466 0.18453,1.52053 -0.40701,1.92041 4.12204,-2.47173 2.77743,-1.21207 1.63856,-1.34841 -0.53894,-0.0645 -1.05642,-0.25269 -1.56959,-0.41819 -1.31603,-0.45195 -2.61618,-0.94817 -3.92956,-1.40766 -0.78098,-0.26427 -0.39851,-0.13363 -1.14748,-0.39166 0,0 -2.42966,1.64581 -2.42966,1.64581 v 0 c 0.75476,0.25593 0.36993,0.12731 1.15463,0.3855 1.31644,0.45037 2.61755,0.9429 3.92672,1.4137 2.65799,0.91307 1.98721,0.80098 5.09971,-1.02578 0.39758,-0.63019 0.28673,-1.40868 0.27835,-2.12274 -0.0674,-1.17427 -0.15947,-2.34936 -0.34061,-3.51218 -0.19428,-1.13781 -0.42927,-2.28289 -1.00376,-3.2993 -0.49813,-0.77899 -1.0888,-1.42959 -2.07637,-1.46709 -0.73919,0.0421 -1.37196,0.24271 -2.02011,0.61006 -2.62967,1.49041 -2.21754,1.24187 -3.71088,2.18053 -1.42832,0.92245 -2.84203,1.86723 -4.23349,2.84456 -1.30508,0.91962 -2.60658,1.84619 -3.8473,2.85219 -0.71309,0.57476 -1.42727,1.14827 -2.13413,1.73069 0,0 2.76642,-1.11885 2.76642,-1.11885 z" />
    <path
       style="fill:#ff0066;fill-opacity:1;stroke:#aa0000;stroke-width:0.7;stroke-miterlimit:4;stroke-dasharray:none"
       id="path125872"
       d="m 161.36139,246.29427 c -0.65453,-0.0761 -1.28127,0.0406 -1.90261,0.23802 -2.07327,0.83845 -3.89848,2.09737 -5.43772,3.69325 -1.28513,1.41496 -2.41257,2.9604 -3.48876,4.53694 -1.02278,1.50801 -1.89357,3.1083 -2.69094,4.74432 -0.49368,0.97371 -0.87418,1.99262 -1.16347,3.04339 0,0 2.65492,-1.26289 2.65492,-1.26289 v 0 c 0.29179,-1.02935 0.67718,-2.02532 1.15837,-2.98227 0.79465,-1.62168 1.66609,-3.20544 2.68861,-4.6966 1.08395,-1.56953 2.21915,-3.10988 3.53086,-4.49925 0.45209,-0.44898 0.61464,-0.6308 1.09568,-1.0322 0.16622,-0.1387 0.70773,-0.49272 0.51281,-0.39853 -3.99181,1.92879 -2.04213,1.2023 -1.18936,0.66981 0.57892,-0.22596 1.17442,-0.39496 1.8027,-0.31561 0,0 2.42891,-1.73838 2.42891,-1.73838 z" />
    <path
       style="fill:#ff0066;fill-opacity:1;stroke:#aa0000;stroke-width:0.7;stroke-miterlimit:4;stroke-dasharray:none"
       id="path125874"
       d="m 139.94356,260.89256 c 0.67681,0.31059 1.37483,0.5704 2.07058,0.83452 1.27349,0.47327 2.57226,0.87335 3.87468,1.25809 1.49985,0.44125 3.00118,0.87744 4.50204,1.31524 1.05664,0.31901 2.13306,0.61066 3.10749,1.13977 0.7383,0.51843 0.52229,0.93287 0.0548,1.56181 -0.12205,0.12978 -0.23718,0.26644 -0.36615,0.38936 -0.546,0.52039 -1.17617,0.95928 -1.81666,1.35358 -0.27476,0.16915 -1.10991,0.65834 -0.83721,0.48586 0.5009,-0.31679 1.01471,-0.61267 1.52207,-0.919 -2.23996,1.13231 -4.58951,2.02649 -6.93194,2.91986 -1.90146,0.71787 -3.80928,1.41875 -5.72393,2.10063 -0.87257,0.27035 -1.75759,0.68945 -2.69014,0.65693 -0.5434,-0.13813 -0.3279,-0.81219 -0.25794,-1.21689 0.2584,-1.06315 0.61565,-2.09868 0.92789,-3.14656 0.32395,-1.10646 0.57602,-2.23166 0.81039,-3.35987 0.15695,-0.77046 0.35872,-1.52974 0.5734,-2.2857 0.14242,-0.52142 0.31038,-1.0354 0.48609,-1.54639 0.0234,-0.0716 0.0467,-0.14327 0.0701,-0.21491 0,0 -2.69219,1.26567 -2.69219,1.26567 v 0 c -0.0234,0.0707 -0.0469,0.14133 -0.0703,0.212 -0.17185,0.51393 -0.32793,1.03322 -0.46941,1.55635 -0.2088,0.75869 -0.39432,1.52321 -0.54668,2.29542 -0.23005,1.11958 -0.48151,2.23549 -0.8104,3.33087 -0.32363,1.06058 -0.69317,2.11034 -0.93371,3.19399 -0.0883,0.61553 -0.17469,1.324 0.49065,1.6342 0.96338,0.17492 1.91641,-0.31094 2.81735,-0.5842 1.9291,-0.69247 3.85077,-1.40536 5.76869,-2.12817 2.34003,-0.88959 4.68662,-1.77814 6.9374,-2.87915 2.05521,-1.15586 4.84633,-2.39143 6.44393,-4.29805 0.47294,-0.81097 0.52192,-1.38728 -0.28218,-1.99038 -0.98869,-0.55806 -2.09043,-0.85467 -3.17353,-1.17495 -1.50339,-0.43044 -3.00509,-0.86699 -4.50438,-1.31152 -1.2908,-0.38161 -2.5768,-0.78194 -3.83748,-1.25517 -0.68058,-0.26473 -1.36884,-0.51625 -2.02316,-0.84238 0,0 -2.49008,1.64914 -2.49008,1.64914 z" />
  </g>
</svg>
